G04 #@! TF.FileFunction,Legend,Top*
%FSLAX46Y46*%
G04 Gerber Fmt 4.6, Leading zero omitted, Abs format (unit mm)*
G04 Created by KiCad (PCBNEW (after 2015-may-25 BZR unknown)-product) date 6/18/2015 8:08:22 AM*
%MOMM*%
G01*
G04 APERTURE LIST*
%ADD10C,0.100000*%
%ADD11C,0.150000*%
%ADD12C,0.120000*%
G04 APERTURE END LIST*
D10*
D11*
X68571000Y-55238000D02*
X70603000Y-55238000D01*
X70603000Y-55238000D02*
X70603000Y-53333000D01*
X75429000Y-53333000D02*
X68571000Y-53333000D01*
X75429000Y-58667000D02*
X75429000Y-53333000D01*
X68571000Y-53333000D02*
X68571000Y-58667000D01*
X68571000Y-58667000D02*
X75429000Y-58667000D01*
X76571000Y-55238000D02*
X78603000Y-55238000D01*
X78603000Y-55238000D02*
X78603000Y-53333000D01*
X83429000Y-53333000D02*
X76571000Y-53333000D01*
X83429000Y-58667000D02*
X83429000Y-53333000D01*
X76571000Y-53333000D02*
X76571000Y-58667000D01*
X76571000Y-58667000D02*
X83429000Y-58667000D01*
X84571000Y-55238000D02*
X86603000Y-55238000D01*
X86603000Y-55238000D02*
X86603000Y-53333000D01*
X91429000Y-53333000D02*
X84571000Y-53333000D01*
X91429000Y-58667000D02*
X91429000Y-53333000D01*
X84571000Y-53333000D02*
X84571000Y-58667000D01*
X84571000Y-58667000D02*
X91429000Y-58667000D01*
X92571000Y-55238000D02*
X94603000Y-55238000D01*
X94603000Y-55238000D02*
X94603000Y-53333000D01*
X99429000Y-53333000D02*
X92571000Y-53333000D01*
X99429000Y-58667000D02*
X99429000Y-53333000D01*
X92571000Y-53333000D02*
X92571000Y-58667000D01*
X92571000Y-58667000D02*
X99429000Y-58667000D01*
X100571000Y-55238000D02*
X102603000Y-55238000D01*
X102603000Y-55238000D02*
X102603000Y-53333000D01*
X107429000Y-53333000D02*
X100571000Y-53333000D01*
X107429000Y-58667000D02*
X107429000Y-53333000D01*
X100571000Y-53333000D02*
X100571000Y-58667000D01*
X100571000Y-58667000D02*
X107429000Y-58667000D01*
X108571000Y-55238000D02*
X110603000Y-55238000D01*
X110603000Y-55238000D02*
X110603000Y-53333000D01*
X115429000Y-53333000D02*
X108571000Y-53333000D01*
X115429000Y-58667000D02*
X115429000Y-53333000D01*
X108571000Y-53333000D02*
X108571000Y-58667000D01*
X108571000Y-58667000D02*
X115429000Y-58667000D01*
X116571000Y-55238000D02*
X118603000Y-55238000D01*
X118603000Y-55238000D02*
X118603000Y-53333000D01*
X123429000Y-53333000D02*
X116571000Y-53333000D01*
X123429000Y-58667000D02*
X123429000Y-53333000D01*
X116571000Y-53333000D02*
X116571000Y-58667000D01*
X116571000Y-58667000D02*
X123429000Y-58667000D01*
X124571000Y-55238000D02*
X126603000Y-55238000D01*
X126603000Y-55238000D02*
X126603000Y-53333000D01*
X131429000Y-53333000D02*
X124571000Y-53333000D01*
X131429000Y-58667000D02*
X131429000Y-53333000D01*
X124571000Y-53333000D02*
X124571000Y-58667000D01*
X124571000Y-58667000D02*
X131429000Y-58667000D01*
X132571000Y-55238000D02*
X134603000Y-55238000D01*
X134603000Y-55238000D02*
X134603000Y-53333000D01*
X139429000Y-53333000D02*
X132571000Y-53333000D01*
X139429000Y-58667000D02*
X139429000Y-53333000D01*
X132571000Y-53333000D02*
X132571000Y-58667000D01*
X132571000Y-58667000D02*
X139429000Y-58667000D01*
X140571000Y-55238000D02*
X142603000Y-55238000D01*
X142603000Y-55238000D02*
X142603000Y-53333000D01*
X147429000Y-53333000D02*
X140571000Y-53333000D01*
X147429000Y-58667000D02*
X147429000Y-53333000D01*
X140571000Y-53333000D02*
X140571000Y-58667000D01*
X140571000Y-58667000D02*
X147429000Y-58667000D01*
X148571000Y-55238000D02*
X150603000Y-55238000D01*
X150603000Y-55238000D02*
X150603000Y-53333000D01*
X155429000Y-53333000D02*
X148571000Y-53333000D01*
X155429000Y-58667000D02*
X155429000Y-53333000D01*
X148571000Y-53333000D02*
X148571000Y-58667000D01*
X148571000Y-58667000D02*
X155429000Y-58667000D01*
X156571000Y-55238000D02*
X158603000Y-55238000D01*
X158603000Y-55238000D02*
X158603000Y-53333000D01*
X163429000Y-53333000D02*
X156571000Y-53333000D01*
X163429000Y-58667000D02*
X163429000Y-53333000D01*
X156571000Y-53333000D02*
X156571000Y-58667000D01*
X156571000Y-58667000D02*
X163429000Y-58667000D01*
X75429000Y-64762000D02*
X73397000Y-64762000D01*
X73397000Y-64762000D02*
X73397000Y-66667000D01*
X68571000Y-66667000D02*
X75429000Y-66667000D01*
X68571000Y-61333000D02*
X68571000Y-66667000D01*
X75429000Y-66667000D02*
X75429000Y-61333000D01*
X75429000Y-61333000D02*
X68571000Y-61333000D01*
X83429000Y-64762000D02*
X81397000Y-64762000D01*
X81397000Y-64762000D02*
X81397000Y-66667000D01*
X76571000Y-66667000D02*
X83429000Y-66667000D01*
X76571000Y-61333000D02*
X76571000Y-66667000D01*
X83429000Y-66667000D02*
X83429000Y-61333000D01*
X83429000Y-61333000D02*
X76571000Y-61333000D01*
X91429000Y-64762000D02*
X89397000Y-64762000D01*
X89397000Y-64762000D02*
X89397000Y-66667000D01*
X84571000Y-66667000D02*
X91429000Y-66667000D01*
X84571000Y-61333000D02*
X84571000Y-66667000D01*
X91429000Y-66667000D02*
X91429000Y-61333000D01*
X91429000Y-61333000D02*
X84571000Y-61333000D01*
X99429000Y-64762000D02*
X97397000Y-64762000D01*
X97397000Y-64762000D02*
X97397000Y-66667000D01*
X92571000Y-66667000D02*
X99429000Y-66667000D01*
X92571000Y-61333000D02*
X92571000Y-66667000D01*
X99429000Y-66667000D02*
X99429000Y-61333000D01*
X99429000Y-61333000D02*
X92571000Y-61333000D01*
X107429000Y-64762000D02*
X105397000Y-64762000D01*
X105397000Y-64762000D02*
X105397000Y-66667000D01*
X100571000Y-66667000D02*
X107429000Y-66667000D01*
X100571000Y-61333000D02*
X100571000Y-66667000D01*
X107429000Y-66667000D02*
X107429000Y-61333000D01*
X107429000Y-61333000D02*
X100571000Y-61333000D01*
X115429000Y-64762000D02*
X113397000Y-64762000D01*
X113397000Y-64762000D02*
X113397000Y-66667000D01*
X108571000Y-66667000D02*
X115429000Y-66667000D01*
X108571000Y-61333000D02*
X108571000Y-66667000D01*
X115429000Y-66667000D02*
X115429000Y-61333000D01*
X115429000Y-61333000D02*
X108571000Y-61333000D01*
X123429000Y-64762000D02*
X121397000Y-64762000D01*
X121397000Y-64762000D02*
X121397000Y-66667000D01*
X116571000Y-66667000D02*
X123429000Y-66667000D01*
X116571000Y-61333000D02*
X116571000Y-66667000D01*
X123429000Y-66667000D02*
X123429000Y-61333000D01*
X123429000Y-61333000D02*
X116571000Y-61333000D01*
X131429000Y-64762000D02*
X129397000Y-64762000D01*
X129397000Y-64762000D02*
X129397000Y-66667000D01*
X124571000Y-66667000D02*
X131429000Y-66667000D01*
X124571000Y-61333000D02*
X124571000Y-66667000D01*
X131429000Y-66667000D02*
X131429000Y-61333000D01*
X131429000Y-61333000D02*
X124571000Y-61333000D01*
X139429000Y-64762000D02*
X137397000Y-64762000D01*
X137397000Y-64762000D02*
X137397000Y-66667000D01*
X132571000Y-66667000D02*
X139429000Y-66667000D01*
X132571000Y-61333000D02*
X132571000Y-66667000D01*
X139429000Y-66667000D02*
X139429000Y-61333000D01*
X139429000Y-61333000D02*
X132571000Y-61333000D01*
X147429000Y-64762000D02*
X145397000Y-64762000D01*
X145397000Y-64762000D02*
X145397000Y-66667000D01*
X140571000Y-66667000D02*
X147429000Y-66667000D01*
X140571000Y-61333000D02*
X140571000Y-66667000D01*
X147429000Y-66667000D02*
X147429000Y-61333000D01*
X147429000Y-61333000D02*
X140571000Y-61333000D01*
X155429000Y-64762000D02*
X153397000Y-64762000D01*
X153397000Y-64762000D02*
X153397000Y-66667000D01*
X148571000Y-66667000D02*
X155429000Y-66667000D01*
X148571000Y-61333000D02*
X148571000Y-66667000D01*
X155429000Y-66667000D02*
X155429000Y-61333000D01*
X155429000Y-61333000D02*
X148571000Y-61333000D01*
X163429000Y-64762000D02*
X161397000Y-64762000D01*
X161397000Y-64762000D02*
X161397000Y-66667000D01*
X156571000Y-66667000D02*
X163429000Y-66667000D01*
X156571000Y-61333000D02*
X156571000Y-66667000D01*
X163429000Y-66667000D02*
X163429000Y-61333000D01*
X163429000Y-61333000D02*
X156571000Y-61333000D01*
X68571000Y-71238000D02*
X70603000Y-71238000D01*
X70603000Y-71238000D02*
X70603000Y-69333000D01*
X75429000Y-69333000D02*
X68571000Y-69333000D01*
X75429000Y-74667000D02*
X75429000Y-69333000D01*
X68571000Y-69333000D02*
X68571000Y-74667000D01*
X68571000Y-74667000D02*
X75429000Y-74667000D01*
X76571000Y-71238000D02*
X78603000Y-71238000D01*
X78603000Y-71238000D02*
X78603000Y-69333000D01*
X83429000Y-69333000D02*
X76571000Y-69333000D01*
X83429000Y-74667000D02*
X83429000Y-69333000D01*
X76571000Y-69333000D02*
X76571000Y-74667000D01*
X76571000Y-74667000D02*
X83429000Y-74667000D01*
X84571000Y-71238000D02*
X86603000Y-71238000D01*
X86603000Y-71238000D02*
X86603000Y-69333000D01*
X91429000Y-69333000D02*
X84571000Y-69333000D01*
X91429000Y-74667000D02*
X91429000Y-69333000D01*
X84571000Y-69333000D02*
X84571000Y-74667000D01*
X84571000Y-74667000D02*
X91429000Y-74667000D01*
X92571000Y-71238000D02*
X94603000Y-71238000D01*
X94603000Y-71238000D02*
X94603000Y-69333000D01*
X99429000Y-69333000D02*
X92571000Y-69333000D01*
X99429000Y-74667000D02*
X99429000Y-69333000D01*
X92571000Y-69333000D02*
X92571000Y-74667000D01*
X92571000Y-74667000D02*
X99429000Y-74667000D01*
X100571000Y-71238000D02*
X102603000Y-71238000D01*
X102603000Y-71238000D02*
X102603000Y-69333000D01*
X107429000Y-69333000D02*
X100571000Y-69333000D01*
X107429000Y-74667000D02*
X107429000Y-69333000D01*
X100571000Y-69333000D02*
X100571000Y-74667000D01*
X100571000Y-74667000D02*
X107429000Y-74667000D01*
X108571000Y-71238000D02*
X110603000Y-71238000D01*
X110603000Y-71238000D02*
X110603000Y-69333000D01*
X115429000Y-69333000D02*
X108571000Y-69333000D01*
X115429000Y-74667000D02*
X115429000Y-69333000D01*
X108571000Y-69333000D02*
X108571000Y-74667000D01*
X108571000Y-74667000D02*
X115429000Y-74667000D01*
X116571000Y-71238000D02*
X118603000Y-71238000D01*
X118603000Y-71238000D02*
X118603000Y-69333000D01*
X123429000Y-69333000D02*
X116571000Y-69333000D01*
X123429000Y-74667000D02*
X123429000Y-69333000D01*
X116571000Y-69333000D02*
X116571000Y-74667000D01*
X116571000Y-74667000D02*
X123429000Y-74667000D01*
X124571000Y-71238000D02*
X126603000Y-71238000D01*
X126603000Y-71238000D02*
X126603000Y-69333000D01*
X131429000Y-69333000D02*
X124571000Y-69333000D01*
X131429000Y-74667000D02*
X131429000Y-69333000D01*
X124571000Y-69333000D02*
X124571000Y-74667000D01*
X124571000Y-74667000D02*
X131429000Y-74667000D01*
X132571000Y-71238000D02*
X134603000Y-71238000D01*
X134603000Y-71238000D02*
X134603000Y-69333000D01*
X139429000Y-69333000D02*
X132571000Y-69333000D01*
X139429000Y-74667000D02*
X139429000Y-69333000D01*
X132571000Y-69333000D02*
X132571000Y-74667000D01*
X132571000Y-74667000D02*
X139429000Y-74667000D01*
X140571000Y-71238000D02*
X142603000Y-71238000D01*
X142603000Y-71238000D02*
X142603000Y-69333000D01*
X147429000Y-69333000D02*
X140571000Y-69333000D01*
X147429000Y-74667000D02*
X147429000Y-69333000D01*
X140571000Y-69333000D02*
X140571000Y-74667000D01*
X140571000Y-74667000D02*
X147429000Y-74667000D01*
X148571000Y-71238000D02*
X150603000Y-71238000D01*
X150603000Y-71238000D02*
X150603000Y-69333000D01*
X155429000Y-69333000D02*
X148571000Y-69333000D01*
X155429000Y-74667000D02*
X155429000Y-69333000D01*
X148571000Y-69333000D02*
X148571000Y-74667000D01*
X148571000Y-74667000D02*
X155429000Y-74667000D01*
X156571000Y-71238000D02*
X158603000Y-71238000D01*
X158603000Y-71238000D02*
X158603000Y-69333000D01*
X163429000Y-69333000D02*
X156571000Y-69333000D01*
X163429000Y-74667000D02*
X163429000Y-69333000D01*
X156571000Y-69333000D02*
X156571000Y-74667000D01*
X156571000Y-74667000D02*
X163429000Y-74667000D01*
X75429000Y-80762000D02*
X73397000Y-80762000D01*
X73397000Y-80762000D02*
X73397000Y-82667000D01*
X68571000Y-82667000D02*
X75429000Y-82667000D01*
X68571000Y-77333000D02*
X68571000Y-82667000D01*
X75429000Y-82667000D02*
X75429000Y-77333000D01*
X75429000Y-77333000D02*
X68571000Y-77333000D01*
X83429000Y-80762000D02*
X81397000Y-80762000D01*
X81397000Y-80762000D02*
X81397000Y-82667000D01*
X76571000Y-82667000D02*
X83429000Y-82667000D01*
X76571000Y-77333000D02*
X76571000Y-82667000D01*
X83429000Y-82667000D02*
X83429000Y-77333000D01*
X83429000Y-77333000D02*
X76571000Y-77333000D01*
X91429000Y-80762000D02*
X89397000Y-80762000D01*
X89397000Y-80762000D02*
X89397000Y-82667000D01*
X84571000Y-82667000D02*
X91429000Y-82667000D01*
X84571000Y-77333000D02*
X84571000Y-82667000D01*
X91429000Y-82667000D02*
X91429000Y-77333000D01*
X91429000Y-77333000D02*
X84571000Y-77333000D01*
X99429000Y-80762000D02*
X97397000Y-80762000D01*
X97397000Y-80762000D02*
X97397000Y-82667000D01*
X92571000Y-82667000D02*
X99429000Y-82667000D01*
X92571000Y-77333000D02*
X92571000Y-82667000D01*
X99429000Y-82667000D02*
X99429000Y-77333000D01*
X99429000Y-77333000D02*
X92571000Y-77333000D01*
X107429000Y-80762000D02*
X105397000Y-80762000D01*
X105397000Y-80762000D02*
X105397000Y-82667000D01*
X100571000Y-82667000D02*
X107429000Y-82667000D01*
X100571000Y-77333000D02*
X100571000Y-82667000D01*
X107429000Y-82667000D02*
X107429000Y-77333000D01*
X107429000Y-77333000D02*
X100571000Y-77333000D01*
X115429000Y-80762000D02*
X113397000Y-80762000D01*
X113397000Y-80762000D02*
X113397000Y-82667000D01*
X108571000Y-82667000D02*
X115429000Y-82667000D01*
X108571000Y-77333000D02*
X108571000Y-82667000D01*
X115429000Y-82667000D02*
X115429000Y-77333000D01*
X115429000Y-77333000D02*
X108571000Y-77333000D01*
X123429000Y-80762000D02*
X121397000Y-80762000D01*
X121397000Y-80762000D02*
X121397000Y-82667000D01*
X116571000Y-82667000D02*
X123429000Y-82667000D01*
X116571000Y-77333000D02*
X116571000Y-82667000D01*
X123429000Y-82667000D02*
X123429000Y-77333000D01*
X123429000Y-77333000D02*
X116571000Y-77333000D01*
X131429000Y-80762000D02*
X129397000Y-80762000D01*
X129397000Y-80762000D02*
X129397000Y-82667000D01*
X124571000Y-82667000D02*
X131429000Y-82667000D01*
X124571000Y-77333000D02*
X124571000Y-82667000D01*
X131429000Y-82667000D02*
X131429000Y-77333000D01*
X131429000Y-77333000D02*
X124571000Y-77333000D01*
X139429000Y-80762000D02*
X137397000Y-80762000D01*
X137397000Y-80762000D02*
X137397000Y-82667000D01*
X132571000Y-82667000D02*
X139429000Y-82667000D01*
X132571000Y-77333000D02*
X132571000Y-82667000D01*
X139429000Y-82667000D02*
X139429000Y-77333000D01*
X139429000Y-77333000D02*
X132571000Y-77333000D01*
X147429000Y-80762000D02*
X145397000Y-80762000D01*
X145397000Y-80762000D02*
X145397000Y-82667000D01*
X140571000Y-82667000D02*
X147429000Y-82667000D01*
X140571000Y-77333000D02*
X140571000Y-82667000D01*
X147429000Y-82667000D02*
X147429000Y-77333000D01*
X147429000Y-77333000D02*
X140571000Y-77333000D01*
X155429000Y-80762000D02*
X153397000Y-80762000D01*
X153397000Y-80762000D02*
X153397000Y-82667000D01*
X148571000Y-82667000D02*
X155429000Y-82667000D01*
X148571000Y-77333000D02*
X148571000Y-82667000D01*
X155429000Y-82667000D02*
X155429000Y-77333000D01*
X155429000Y-77333000D02*
X148571000Y-77333000D01*
X163429000Y-80762000D02*
X161397000Y-80762000D01*
X161397000Y-80762000D02*
X161397000Y-82667000D01*
X156571000Y-82667000D02*
X163429000Y-82667000D01*
X156571000Y-77333000D02*
X156571000Y-82667000D01*
X163429000Y-82667000D02*
X163429000Y-77333000D01*
X163429000Y-77333000D02*
X156571000Y-77333000D01*
X68571000Y-87238000D02*
X70603000Y-87238000D01*
X70603000Y-87238000D02*
X70603000Y-85333000D01*
X75429000Y-85333000D02*
X68571000Y-85333000D01*
X75429000Y-90667000D02*
X75429000Y-85333000D01*
X68571000Y-85333000D02*
X68571000Y-90667000D01*
X68571000Y-90667000D02*
X75429000Y-90667000D01*
X76571000Y-87238000D02*
X78603000Y-87238000D01*
X78603000Y-87238000D02*
X78603000Y-85333000D01*
X83429000Y-85333000D02*
X76571000Y-85333000D01*
X83429000Y-90667000D02*
X83429000Y-85333000D01*
X76571000Y-85333000D02*
X76571000Y-90667000D01*
X76571000Y-90667000D02*
X83429000Y-90667000D01*
X84571000Y-87238000D02*
X86603000Y-87238000D01*
X86603000Y-87238000D02*
X86603000Y-85333000D01*
X91429000Y-85333000D02*
X84571000Y-85333000D01*
X91429000Y-90667000D02*
X91429000Y-85333000D01*
X84571000Y-85333000D02*
X84571000Y-90667000D01*
X84571000Y-90667000D02*
X91429000Y-90667000D01*
X92571000Y-87238000D02*
X94603000Y-87238000D01*
X94603000Y-87238000D02*
X94603000Y-85333000D01*
X99429000Y-85333000D02*
X92571000Y-85333000D01*
X99429000Y-90667000D02*
X99429000Y-85333000D01*
X92571000Y-85333000D02*
X92571000Y-90667000D01*
X92571000Y-90667000D02*
X99429000Y-90667000D01*
X100571000Y-87238000D02*
X102603000Y-87238000D01*
X102603000Y-87238000D02*
X102603000Y-85333000D01*
X107429000Y-85333000D02*
X100571000Y-85333000D01*
X107429000Y-90667000D02*
X107429000Y-85333000D01*
X100571000Y-85333000D02*
X100571000Y-90667000D01*
X100571000Y-90667000D02*
X107429000Y-90667000D01*
X108571000Y-87238000D02*
X110603000Y-87238000D01*
X110603000Y-87238000D02*
X110603000Y-85333000D01*
X115429000Y-85333000D02*
X108571000Y-85333000D01*
X115429000Y-90667000D02*
X115429000Y-85333000D01*
X108571000Y-85333000D02*
X108571000Y-90667000D01*
X108571000Y-90667000D02*
X115429000Y-90667000D01*
X116571000Y-87238000D02*
X118603000Y-87238000D01*
X118603000Y-87238000D02*
X118603000Y-85333000D01*
X123429000Y-85333000D02*
X116571000Y-85333000D01*
X123429000Y-90667000D02*
X123429000Y-85333000D01*
X116571000Y-85333000D02*
X116571000Y-90667000D01*
X116571000Y-90667000D02*
X123429000Y-90667000D01*
X124571000Y-87238000D02*
X126603000Y-87238000D01*
X126603000Y-87238000D02*
X126603000Y-85333000D01*
X131429000Y-85333000D02*
X124571000Y-85333000D01*
X131429000Y-90667000D02*
X131429000Y-85333000D01*
X124571000Y-85333000D02*
X124571000Y-90667000D01*
X124571000Y-90667000D02*
X131429000Y-90667000D01*
X132571000Y-87238000D02*
X134603000Y-87238000D01*
X134603000Y-87238000D02*
X134603000Y-85333000D01*
X139429000Y-85333000D02*
X132571000Y-85333000D01*
X139429000Y-90667000D02*
X139429000Y-85333000D01*
X132571000Y-85333000D02*
X132571000Y-90667000D01*
X132571000Y-90667000D02*
X139429000Y-90667000D01*
X140571000Y-87238000D02*
X142603000Y-87238000D01*
X142603000Y-87238000D02*
X142603000Y-85333000D01*
X147429000Y-85333000D02*
X140571000Y-85333000D01*
X147429000Y-90667000D02*
X147429000Y-85333000D01*
X140571000Y-85333000D02*
X140571000Y-90667000D01*
X140571000Y-90667000D02*
X147429000Y-90667000D01*
X148571000Y-87238000D02*
X150603000Y-87238000D01*
X150603000Y-87238000D02*
X150603000Y-85333000D01*
X155429000Y-85333000D02*
X148571000Y-85333000D01*
X155429000Y-90667000D02*
X155429000Y-85333000D01*
X148571000Y-85333000D02*
X148571000Y-90667000D01*
X148571000Y-90667000D02*
X155429000Y-90667000D01*
X156571000Y-87238000D02*
X158603000Y-87238000D01*
X158603000Y-87238000D02*
X158603000Y-85333000D01*
X163429000Y-85333000D02*
X156571000Y-85333000D01*
X163429000Y-90667000D02*
X163429000Y-85333000D01*
X156571000Y-85333000D02*
X156571000Y-90667000D01*
X156571000Y-90667000D02*
X163429000Y-90667000D01*
X75429000Y-96762000D02*
X73397000Y-96762000D01*
X73397000Y-96762000D02*
X73397000Y-98667000D01*
X68571000Y-98667000D02*
X75429000Y-98667000D01*
X68571000Y-93333000D02*
X68571000Y-98667000D01*
X75429000Y-98667000D02*
X75429000Y-93333000D01*
X75429000Y-93333000D02*
X68571000Y-93333000D01*
X83429000Y-96762000D02*
X81397000Y-96762000D01*
X81397000Y-96762000D02*
X81397000Y-98667000D01*
X76571000Y-98667000D02*
X83429000Y-98667000D01*
X76571000Y-93333000D02*
X76571000Y-98667000D01*
X83429000Y-98667000D02*
X83429000Y-93333000D01*
X83429000Y-93333000D02*
X76571000Y-93333000D01*
X91429000Y-96762000D02*
X89397000Y-96762000D01*
X89397000Y-96762000D02*
X89397000Y-98667000D01*
X84571000Y-98667000D02*
X91429000Y-98667000D01*
X84571000Y-93333000D02*
X84571000Y-98667000D01*
X91429000Y-98667000D02*
X91429000Y-93333000D01*
X91429000Y-93333000D02*
X84571000Y-93333000D01*
X99429000Y-96762000D02*
X97397000Y-96762000D01*
X97397000Y-96762000D02*
X97397000Y-98667000D01*
X92571000Y-98667000D02*
X99429000Y-98667000D01*
X92571000Y-93333000D02*
X92571000Y-98667000D01*
X99429000Y-98667000D02*
X99429000Y-93333000D01*
X99429000Y-93333000D02*
X92571000Y-93333000D01*
X107429000Y-96762000D02*
X105397000Y-96762000D01*
X105397000Y-96762000D02*
X105397000Y-98667000D01*
X100571000Y-98667000D02*
X107429000Y-98667000D01*
X100571000Y-93333000D02*
X100571000Y-98667000D01*
X107429000Y-98667000D02*
X107429000Y-93333000D01*
X107429000Y-93333000D02*
X100571000Y-93333000D01*
X115429000Y-96762000D02*
X113397000Y-96762000D01*
X113397000Y-96762000D02*
X113397000Y-98667000D01*
X108571000Y-98667000D02*
X115429000Y-98667000D01*
X108571000Y-93333000D02*
X108571000Y-98667000D01*
X115429000Y-98667000D02*
X115429000Y-93333000D01*
X115429000Y-93333000D02*
X108571000Y-93333000D01*
X123429000Y-96762000D02*
X121397000Y-96762000D01*
X121397000Y-96762000D02*
X121397000Y-98667000D01*
X116571000Y-98667000D02*
X123429000Y-98667000D01*
X116571000Y-93333000D02*
X116571000Y-98667000D01*
X123429000Y-98667000D02*
X123429000Y-93333000D01*
X123429000Y-93333000D02*
X116571000Y-93333000D01*
X131429000Y-96762000D02*
X129397000Y-96762000D01*
X129397000Y-96762000D02*
X129397000Y-98667000D01*
X124571000Y-98667000D02*
X131429000Y-98667000D01*
X124571000Y-93333000D02*
X124571000Y-98667000D01*
X131429000Y-98667000D02*
X131429000Y-93333000D01*
X131429000Y-93333000D02*
X124571000Y-93333000D01*
X139429000Y-96762000D02*
X137397000Y-96762000D01*
X137397000Y-96762000D02*
X137397000Y-98667000D01*
X132571000Y-98667000D02*
X139429000Y-98667000D01*
X132571000Y-93333000D02*
X132571000Y-98667000D01*
X139429000Y-98667000D02*
X139429000Y-93333000D01*
X139429000Y-93333000D02*
X132571000Y-93333000D01*
X147429000Y-96762000D02*
X145397000Y-96762000D01*
X145397000Y-96762000D02*
X145397000Y-98667000D01*
X140571000Y-98667000D02*
X147429000Y-98667000D01*
X140571000Y-93333000D02*
X140571000Y-98667000D01*
X147429000Y-98667000D02*
X147429000Y-93333000D01*
X147429000Y-93333000D02*
X140571000Y-93333000D01*
X155429000Y-96762000D02*
X153397000Y-96762000D01*
X153397000Y-96762000D02*
X153397000Y-98667000D01*
X148571000Y-98667000D02*
X155429000Y-98667000D01*
X148571000Y-93333000D02*
X148571000Y-98667000D01*
X155429000Y-98667000D02*
X155429000Y-93333000D01*
X155429000Y-93333000D02*
X148571000Y-93333000D01*
X163429000Y-96762000D02*
X161397000Y-96762000D01*
X161397000Y-96762000D02*
X161397000Y-98667000D01*
X156571000Y-98667000D02*
X163429000Y-98667000D01*
X156571000Y-93333000D02*
X156571000Y-98667000D01*
X163429000Y-98667000D02*
X163429000Y-93333000D01*
X163429000Y-93333000D02*
X156571000Y-93333000D01*
X68571000Y-103238000D02*
X70603000Y-103238000D01*
X70603000Y-103238000D02*
X70603000Y-101333000D01*
X75429000Y-101333000D02*
X68571000Y-101333000D01*
X75429000Y-106667000D02*
X75429000Y-101333000D01*
X68571000Y-101333000D02*
X68571000Y-106667000D01*
X68571000Y-106667000D02*
X75429000Y-106667000D01*
X76571000Y-103238000D02*
X78603000Y-103238000D01*
X78603000Y-103238000D02*
X78603000Y-101333000D01*
X83429000Y-101333000D02*
X76571000Y-101333000D01*
X83429000Y-106667000D02*
X83429000Y-101333000D01*
X76571000Y-101333000D02*
X76571000Y-106667000D01*
X76571000Y-106667000D02*
X83429000Y-106667000D01*
X84571000Y-103238000D02*
X86603000Y-103238000D01*
X86603000Y-103238000D02*
X86603000Y-101333000D01*
X91429000Y-101333000D02*
X84571000Y-101333000D01*
X91429000Y-106667000D02*
X91429000Y-101333000D01*
X84571000Y-101333000D02*
X84571000Y-106667000D01*
X84571000Y-106667000D02*
X91429000Y-106667000D01*
X92571000Y-103238000D02*
X94603000Y-103238000D01*
X94603000Y-103238000D02*
X94603000Y-101333000D01*
X99429000Y-101333000D02*
X92571000Y-101333000D01*
X99429000Y-106667000D02*
X99429000Y-101333000D01*
X92571000Y-101333000D02*
X92571000Y-106667000D01*
X92571000Y-106667000D02*
X99429000Y-106667000D01*
X100571000Y-103238000D02*
X102603000Y-103238000D01*
X102603000Y-103238000D02*
X102603000Y-101333000D01*
X107429000Y-101333000D02*
X100571000Y-101333000D01*
X107429000Y-106667000D02*
X107429000Y-101333000D01*
X100571000Y-101333000D02*
X100571000Y-106667000D01*
X100571000Y-106667000D02*
X107429000Y-106667000D01*
X108571000Y-103238000D02*
X110603000Y-103238000D01*
X110603000Y-103238000D02*
X110603000Y-101333000D01*
X115429000Y-101333000D02*
X108571000Y-101333000D01*
X115429000Y-106667000D02*
X115429000Y-101333000D01*
X108571000Y-101333000D02*
X108571000Y-106667000D01*
X108571000Y-106667000D02*
X115429000Y-106667000D01*
X116571000Y-103238000D02*
X118603000Y-103238000D01*
X118603000Y-103238000D02*
X118603000Y-101333000D01*
X123429000Y-101333000D02*
X116571000Y-101333000D01*
X123429000Y-106667000D02*
X123429000Y-101333000D01*
X116571000Y-101333000D02*
X116571000Y-106667000D01*
X116571000Y-106667000D02*
X123429000Y-106667000D01*
X124571000Y-103238000D02*
X126603000Y-103238000D01*
X126603000Y-103238000D02*
X126603000Y-101333000D01*
X131429000Y-101333000D02*
X124571000Y-101333000D01*
X131429000Y-106667000D02*
X131429000Y-101333000D01*
X124571000Y-101333000D02*
X124571000Y-106667000D01*
X124571000Y-106667000D02*
X131429000Y-106667000D01*
X132571000Y-103238000D02*
X134603000Y-103238000D01*
X134603000Y-103238000D02*
X134603000Y-101333000D01*
X139429000Y-101333000D02*
X132571000Y-101333000D01*
X139429000Y-106667000D02*
X139429000Y-101333000D01*
X132571000Y-101333000D02*
X132571000Y-106667000D01*
X132571000Y-106667000D02*
X139429000Y-106667000D01*
X140571000Y-103238000D02*
X142603000Y-103238000D01*
X142603000Y-103238000D02*
X142603000Y-101333000D01*
X147429000Y-101333000D02*
X140571000Y-101333000D01*
X147429000Y-106667000D02*
X147429000Y-101333000D01*
X140571000Y-101333000D02*
X140571000Y-106667000D01*
X140571000Y-106667000D02*
X147429000Y-106667000D01*
X148571000Y-103238000D02*
X150603000Y-103238000D01*
X150603000Y-103238000D02*
X150603000Y-101333000D01*
X155429000Y-101333000D02*
X148571000Y-101333000D01*
X155429000Y-106667000D02*
X155429000Y-101333000D01*
X148571000Y-101333000D02*
X148571000Y-106667000D01*
X148571000Y-106667000D02*
X155429000Y-106667000D01*
X156571000Y-103238000D02*
X158603000Y-103238000D01*
X158603000Y-103238000D02*
X158603000Y-101333000D01*
X163429000Y-101333000D02*
X156571000Y-101333000D01*
X163429000Y-106667000D02*
X163429000Y-101333000D01*
X156571000Y-101333000D02*
X156571000Y-106667000D01*
X156571000Y-106667000D02*
X163429000Y-106667000D01*
D12*
X73878571Y-52389286D02*
X73878571Y-52996429D01*
X73914286Y-53067857D01*
X73950000Y-53103571D01*
X74021429Y-53139286D01*
X74164286Y-53139286D01*
X74235714Y-53103571D01*
X74271429Y-53067857D01*
X74307143Y-52996429D01*
X74307143Y-52389286D01*
X75057143Y-53139286D02*
X74628571Y-53139286D01*
X74842857Y-53139286D02*
X74842857Y-52389286D01*
X74771428Y-52496429D01*
X74700000Y-52567857D01*
X74628571Y-52603571D01*
X73357286Y-57863286D02*
X72928714Y-57863286D01*
X73143000Y-57863286D02*
X73143000Y-57113286D01*
X73071571Y-57220429D01*
X73000143Y-57291857D01*
X72928714Y-57327571D01*
X81878571Y-52389286D02*
X81878571Y-52996429D01*
X81914286Y-53067857D01*
X81950000Y-53103571D01*
X82021429Y-53139286D01*
X82164286Y-53139286D01*
X82235714Y-53103571D01*
X82271429Y-53067857D01*
X82307143Y-52996429D01*
X82307143Y-52389286D01*
X82628571Y-52460714D02*
X82664285Y-52425000D01*
X82735714Y-52389286D01*
X82914285Y-52389286D01*
X82985714Y-52425000D01*
X83021428Y-52460714D01*
X83057143Y-52532143D01*
X83057143Y-52603571D01*
X83021428Y-52710714D01*
X82592857Y-53139286D01*
X83057143Y-53139286D01*
X81357286Y-57863286D02*
X80928714Y-57863286D01*
X81143000Y-57863286D02*
X81143000Y-57113286D01*
X81071571Y-57220429D01*
X81000143Y-57291857D01*
X80928714Y-57327571D01*
X89878571Y-52389286D02*
X89878571Y-52996429D01*
X89914286Y-53067857D01*
X89950000Y-53103571D01*
X90021429Y-53139286D01*
X90164286Y-53139286D01*
X90235714Y-53103571D01*
X90271429Y-53067857D01*
X90307143Y-52996429D01*
X90307143Y-52389286D01*
X90592857Y-52389286D02*
X91057143Y-52389286D01*
X90807143Y-52675000D01*
X90914285Y-52675000D01*
X90985714Y-52710714D01*
X91021428Y-52746429D01*
X91057143Y-52817857D01*
X91057143Y-52996429D01*
X91021428Y-53067857D01*
X90985714Y-53103571D01*
X90914285Y-53139286D01*
X90700000Y-53139286D01*
X90628571Y-53103571D01*
X90592857Y-53067857D01*
X89357286Y-57863286D02*
X88928714Y-57863286D01*
X89143000Y-57863286D02*
X89143000Y-57113286D01*
X89071571Y-57220429D01*
X89000143Y-57291857D01*
X88928714Y-57327571D01*
X97878571Y-52389286D02*
X97878571Y-52996429D01*
X97914286Y-53067857D01*
X97950000Y-53103571D01*
X98021429Y-53139286D01*
X98164286Y-53139286D01*
X98235714Y-53103571D01*
X98271429Y-53067857D01*
X98307143Y-52996429D01*
X98307143Y-52389286D01*
X98985714Y-52639286D02*
X98985714Y-53139286D01*
X98807143Y-52353571D02*
X98628571Y-52889286D01*
X99092857Y-52889286D01*
X97357286Y-57863286D02*
X96928714Y-57863286D01*
X97143000Y-57863286D02*
X97143000Y-57113286D01*
X97071571Y-57220429D01*
X97000143Y-57291857D01*
X96928714Y-57327571D01*
X105878571Y-52389286D02*
X105878571Y-52996429D01*
X105914286Y-53067857D01*
X105950000Y-53103571D01*
X106021429Y-53139286D01*
X106164286Y-53139286D01*
X106235714Y-53103571D01*
X106271429Y-53067857D01*
X106307143Y-52996429D01*
X106307143Y-52389286D01*
X107021428Y-52389286D02*
X106664285Y-52389286D01*
X106628571Y-52746429D01*
X106664285Y-52710714D01*
X106735714Y-52675000D01*
X106914285Y-52675000D01*
X106985714Y-52710714D01*
X107021428Y-52746429D01*
X107057143Y-52817857D01*
X107057143Y-52996429D01*
X107021428Y-53067857D01*
X106985714Y-53103571D01*
X106914285Y-53139286D01*
X106735714Y-53139286D01*
X106664285Y-53103571D01*
X106628571Y-53067857D01*
X105357286Y-57863286D02*
X104928714Y-57863286D01*
X105143000Y-57863286D02*
X105143000Y-57113286D01*
X105071571Y-57220429D01*
X105000143Y-57291857D01*
X104928714Y-57327571D01*
X113878571Y-52389286D02*
X113878571Y-52996429D01*
X113914286Y-53067857D01*
X113950000Y-53103571D01*
X114021429Y-53139286D01*
X114164286Y-53139286D01*
X114235714Y-53103571D01*
X114271429Y-53067857D01*
X114307143Y-52996429D01*
X114307143Y-52389286D01*
X114985714Y-52389286D02*
X114842857Y-52389286D01*
X114771428Y-52425000D01*
X114735714Y-52460714D01*
X114664285Y-52567857D01*
X114628571Y-52710714D01*
X114628571Y-52996429D01*
X114664285Y-53067857D01*
X114700000Y-53103571D01*
X114771428Y-53139286D01*
X114914285Y-53139286D01*
X114985714Y-53103571D01*
X115021428Y-53067857D01*
X115057143Y-52996429D01*
X115057143Y-52817857D01*
X115021428Y-52746429D01*
X114985714Y-52710714D01*
X114914285Y-52675000D01*
X114771428Y-52675000D01*
X114700000Y-52710714D01*
X114664285Y-52746429D01*
X114628571Y-52817857D01*
X113357286Y-57863286D02*
X112928714Y-57863286D01*
X113143000Y-57863286D02*
X113143000Y-57113286D01*
X113071571Y-57220429D01*
X113000143Y-57291857D01*
X112928714Y-57327571D01*
X121878571Y-52389286D02*
X121878571Y-52996429D01*
X121914286Y-53067857D01*
X121950000Y-53103571D01*
X122021429Y-53139286D01*
X122164286Y-53139286D01*
X122235714Y-53103571D01*
X122271429Y-53067857D01*
X122307143Y-52996429D01*
X122307143Y-52389286D01*
X122592857Y-52389286D02*
X123092857Y-52389286D01*
X122771428Y-53139286D01*
X121357286Y-57863286D02*
X120928714Y-57863286D01*
X121143000Y-57863286D02*
X121143000Y-57113286D01*
X121071571Y-57220429D01*
X121000143Y-57291857D01*
X120928714Y-57327571D01*
X129878571Y-52389286D02*
X129878571Y-52996429D01*
X129914286Y-53067857D01*
X129950000Y-53103571D01*
X130021429Y-53139286D01*
X130164286Y-53139286D01*
X130235714Y-53103571D01*
X130271429Y-53067857D01*
X130307143Y-52996429D01*
X130307143Y-52389286D01*
X130771428Y-52710714D02*
X130700000Y-52675000D01*
X130664285Y-52639286D01*
X130628571Y-52567857D01*
X130628571Y-52532143D01*
X130664285Y-52460714D01*
X130700000Y-52425000D01*
X130771428Y-52389286D01*
X130914285Y-52389286D01*
X130985714Y-52425000D01*
X131021428Y-52460714D01*
X131057143Y-52532143D01*
X131057143Y-52567857D01*
X131021428Y-52639286D01*
X130985714Y-52675000D01*
X130914285Y-52710714D01*
X130771428Y-52710714D01*
X130700000Y-52746429D01*
X130664285Y-52782143D01*
X130628571Y-52853571D01*
X130628571Y-52996429D01*
X130664285Y-53067857D01*
X130700000Y-53103571D01*
X130771428Y-53139286D01*
X130914285Y-53139286D01*
X130985714Y-53103571D01*
X131021428Y-53067857D01*
X131057143Y-52996429D01*
X131057143Y-52853571D01*
X131021428Y-52782143D01*
X130985714Y-52746429D01*
X130914285Y-52710714D01*
X129357286Y-57863286D02*
X128928714Y-57863286D01*
X129143000Y-57863286D02*
X129143000Y-57113286D01*
X129071571Y-57220429D01*
X129000143Y-57291857D01*
X128928714Y-57327571D01*
X137878571Y-52389286D02*
X137878571Y-52996429D01*
X137914286Y-53067857D01*
X137950000Y-53103571D01*
X138021429Y-53139286D01*
X138164286Y-53139286D01*
X138235714Y-53103571D01*
X138271429Y-53067857D01*
X138307143Y-52996429D01*
X138307143Y-52389286D01*
X138700000Y-53139286D02*
X138842857Y-53139286D01*
X138914285Y-53103571D01*
X138950000Y-53067857D01*
X139021428Y-52960714D01*
X139057143Y-52817857D01*
X139057143Y-52532143D01*
X139021428Y-52460714D01*
X138985714Y-52425000D01*
X138914285Y-52389286D01*
X138771428Y-52389286D01*
X138700000Y-52425000D01*
X138664285Y-52460714D01*
X138628571Y-52532143D01*
X138628571Y-52710714D01*
X138664285Y-52782143D01*
X138700000Y-52817857D01*
X138771428Y-52853571D01*
X138914285Y-52853571D01*
X138985714Y-52817857D01*
X139021428Y-52782143D01*
X139057143Y-52710714D01*
X137357286Y-57863286D02*
X136928714Y-57863286D01*
X137143000Y-57863286D02*
X137143000Y-57113286D01*
X137071571Y-57220429D01*
X137000143Y-57291857D01*
X136928714Y-57327571D01*
X145521428Y-52389286D02*
X145521428Y-52996429D01*
X145557143Y-53067857D01*
X145592857Y-53103571D01*
X145664286Y-53139286D01*
X145807143Y-53139286D01*
X145878571Y-53103571D01*
X145914286Y-53067857D01*
X145950000Y-52996429D01*
X145950000Y-52389286D01*
X146700000Y-53139286D02*
X146271428Y-53139286D01*
X146485714Y-53139286D02*
X146485714Y-52389286D01*
X146414285Y-52496429D01*
X146342857Y-52567857D01*
X146271428Y-52603571D01*
X147164286Y-52389286D02*
X147235714Y-52389286D01*
X147307143Y-52425000D01*
X147342857Y-52460714D01*
X147378571Y-52532143D01*
X147414286Y-52675000D01*
X147414286Y-52853571D01*
X147378571Y-52996429D01*
X147342857Y-53067857D01*
X147307143Y-53103571D01*
X147235714Y-53139286D01*
X147164286Y-53139286D01*
X147092857Y-53103571D01*
X147057143Y-53067857D01*
X147021428Y-52996429D01*
X146985714Y-52853571D01*
X146985714Y-52675000D01*
X147021428Y-52532143D01*
X147057143Y-52460714D01*
X147092857Y-52425000D01*
X147164286Y-52389286D01*
X145357286Y-57863286D02*
X144928714Y-57863286D01*
X145143000Y-57863286D02*
X145143000Y-57113286D01*
X145071571Y-57220429D01*
X145000143Y-57291857D01*
X144928714Y-57327571D01*
X153521428Y-52389286D02*
X153521428Y-52996429D01*
X153557143Y-53067857D01*
X153592857Y-53103571D01*
X153664286Y-53139286D01*
X153807143Y-53139286D01*
X153878571Y-53103571D01*
X153914286Y-53067857D01*
X153950000Y-52996429D01*
X153950000Y-52389286D01*
X154700000Y-53139286D02*
X154271428Y-53139286D01*
X154485714Y-53139286D02*
X154485714Y-52389286D01*
X154414285Y-52496429D01*
X154342857Y-52567857D01*
X154271428Y-52603571D01*
X155414286Y-53139286D02*
X154985714Y-53139286D01*
X155200000Y-53139286D02*
X155200000Y-52389286D01*
X155128571Y-52496429D01*
X155057143Y-52567857D01*
X154985714Y-52603571D01*
X153357286Y-57863286D02*
X152928714Y-57863286D01*
X153143000Y-57863286D02*
X153143000Y-57113286D01*
X153071571Y-57220429D01*
X153000143Y-57291857D01*
X152928714Y-57327571D01*
X161521428Y-52389286D02*
X161521428Y-52996429D01*
X161557143Y-53067857D01*
X161592857Y-53103571D01*
X161664286Y-53139286D01*
X161807143Y-53139286D01*
X161878571Y-53103571D01*
X161914286Y-53067857D01*
X161950000Y-52996429D01*
X161950000Y-52389286D01*
X162700000Y-53139286D02*
X162271428Y-53139286D01*
X162485714Y-53139286D02*
X162485714Y-52389286D01*
X162414285Y-52496429D01*
X162342857Y-52567857D01*
X162271428Y-52603571D01*
X162985714Y-52460714D02*
X163021428Y-52425000D01*
X163092857Y-52389286D01*
X163271428Y-52389286D01*
X163342857Y-52425000D01*
X163378571Y-52460714D01*
X163414286Y-52532143D01*
X163414286Y-52603571D01*
X163378571Y-52710714D01*
X162950000Y-53139286D01*
X163414286Y-53139286D01*
X161357286Y-57863286D02*
X160928714Y-57863286D01*
X161143000Y-57863286D02*
X161143000Y-57113286D01*
X161071571Y-57220429D01*
X161000143Y-57291857D01*
X160928714Y-57327571D01*
X74071428Y-60089286D02*
X74071428Y-60696429D01*
X74107143Y-60767857D01*
X74142857Y-60803571D01*
X74214286Y-60839286D01*
X74357143Y-60839286D01*
X74428571Y-60803571D01*
X74464286Y-60767857D01*
X74500000Y-60696429D01*
X74500000Y-60089286D01*
X75250000Y-60839286D02*
X74821428Y-60839286D01*
X75035714Y-60839286D02*
X75035714Y-60089286D01*
X74964285Y-60196429D01*
X74892857Y-60267857D01*
X74821428Y-60303571D01*
X75500000Y-60089286D02*
X75964286Y-60089286D01*
X75714286Y-60375000D01*
X75821428Y-60375000D01*
X75892857Y-60410714D01*
X75928571Y-60446429D01*
X75964286Y-60517857D01*
X75964286Y-60696429D01*
X75928571Y-60767857D01*
X75892857Y-60803571D01*
X75821428Y-60839286D01*
X75607143Y-60839286D01*
X75535714Y-60803571D01*
X75500000Y-60767857D01*
X71071286Y-62815286D02*
X70642714Y-62815286D01*
X70857000Y-62815286D02*
X70857000Y-62065286D01*
X70785571Y-62172429D01*
X70714143Y-62243857D01*
X70642714Y-62279571D01*
X76621428Y-66789286D02*
X76621428Y-67396429D01*
X76657143Y-67467857D01*
X76692857Y-67503571D01*
X76764286Y-67539286D01*
X76907143Y-67539286D01*
X76978571Y-67503571D01*
X77014286Y-67467857D01*
X77050000Y-67396429D01*
X77050000Y-66789286D01*
X77800000Y-67539286D02*
X77371428Y-67539286D01*
X77585714Y-67539286D02*
X77585714Y-66789286D01*
X77514285Y-66896429D01*
X77442857Y-66967857D01*
X77371428Y-67003571D01*
X78442857Y-67039286D02*
X78442857Y-67539286D01*
X78264286Y-66753571D02*
X78085714Y-67289286D01*
X78550000Y-67289286D01*
X79071286Y-62815286D02*
X78642714Y-62815286D01*
X78857000Y-62815286D02*
X78857000Y-62065286D01*
X78785571Y-62172429D01*
X78714143Y-62243857D01*
X78642714Y-62279571D01*
X84621428Y-66789286D02*
X84621428Y-67396429D01*
X84657143Y-67467857D01*
X84692857Y-67503571D01*
X84764286Y-67539286D01*
X84907143Y-67539286D01*
X84978571Y-67503571D01*
X85014286Y-67467857D01*
X85050000Y-67396429D01*
X85050000Y-66789286D01*
X85800000Y-67539286D02*
X85371428Y-67539286D01*
X85585714Y-67539286D02*
X85585714Y-66789286D01*
X85514285Y-66896429D01*
X85442857Y-66967857D01*
X85371428Y-67003571D01*
X86478571Y-66789286D02*
X86121428Y-66789286D01*
X86085714Y-67146429D01*
X86121428Y-67110714D01*
X86192857Y-67075000D01*
X86371428Y-67075000D01*
X86442857Y-67110714D01*
X86478571Y-67146429D01*
X86514286Y-67217857D01*
X86514286Y-67396429D01*
X86478571Y-67467857D01*
X86442857Y-67503571D01*
X86371428Y-67539286D01*
X86192857Y-67539286D01*
X86121428Y-67503571D01*
X86085714Y-67467857D01*
X87071286Y-62815286D02*
X86642714Y-62815286D01*
X86857000Y-62815286D02*
X86857000Y-62065286D01*
X86785571Y-62172429D01*
X86714143Y-62243857D01*
X86642714Y-62279571D01*
X92621428Y-66789286D02*
X92621428Y-67396429D01*
X92657143Y-67467857D01*
X92692857Y-67503571D01*
X92764286Y-67539286D01*
X92907143Y-67539286D01*
X92978571Y-67503571D01*
X93014286Y-67467857D01*
X93050000Y-67396429D01*
X93050000Y-66789286D01*
X93800000Y-67539286D02*
X93371428Y-67539286D01*
X93585714Y-67539286D02*
X93585714Y-66789286D01*
X93514285Y-66896429D01*
X93442857Y-66967857D01*
X93371428Y-67003571D01*
X94442857Y-66789286D02*
X94300000Y-66789286D01*
X94228571Y-66825000D01*
X94192857Y-66860714D01*
X94121428Y-66967857D01*
X94085714Y-67110714D01*
X94085714Y-67396429D01*
X94121428Y-67467857D01*
X94157143Y-67503571D01*
X94228571Y-67539286D01*
X94371428Y-67539286D01*
X94442857Y-67503571D01*
X94478571Y-67467857D01*
X94514286Y-67396429D01*
X94514286Y-67217857D01*
X94478571Y-67146429D01*
X94442857Y-67110714D01*
X94371428Y-67075000D01*
X94228571Y-67075000D01*
X94157143Y-67110714D01*
X94121428Y-67146429D01*
X94085714Y-67217857D01*
X95071286Y-62815286D02*
X94642714Y-62815286D01*
X94857000Y-62815286D02*
X94857000Y-62065286D01*
X94785571Y-62172429D01*
X94714143Y-62243857D01*
X94642714Y-62279571D01*
X100621428Y-66789286D02*
X100621428Y-67396429D01*
X100657143Y-67467857D01*
X100692857Y-67503571D01*
X100764286Y-67539286D01*
X100907143Y-67539286D01*
X100978571Y-67503571D01*
X101014286Y-67467857D01*
X101050000Y-67396429D01*
X101050000Y-66789286D01*
X101800000Y-67539286D02*
X101371428Y-67539286D01*
X101585714Y-67539286D02*
X101585714Y-66789286D01*
X101514285Y-66896429D01*
X101442857Y-66967857D01*
X101371428Y-67003571D01*
X102050000Y-66789286D02*
X102550000Y-66789286D01*
X102228571Y-67539286D01*
X103071286Y-62815286D02*
X102642714Y-62815286D01*
X102857000Y-62815286D02*
X102857000Y-62065286D01*
X102785571Y-62172429D01*
X102714143Y-62243857D01*
X102642714Y-62279571D01*
X108621428Y-66789286D02*
X108621428Y-67396429D01*
X108657143Y-67467857D01*
X108692857Y-67503571D01*
X108764286Y-67539286D01*
X108907143Y-67539286D01*
X108978571Y-67503571D01*
X109014286Y-67467857D01*
X109050000Y-67396429D01*
X109050000Y-66789286D01*
X109800000Y-67539286D02*
X109371428Y-67539286D01*
X109585714Y-67539286D02*
X109585714Y-66789286D01*
X109514285Y-66896429D01*
X109442857Y-66967857D01*
X109371428Y-67003571D01*
X110228571Y-67110714D02*
X110157143Y-67075000D01*
X110121428Y-67039286D01*
X110085714Y-66967857D01*
X110085714Y-66932143D01*
X110121428Y-66860714D01*
X110157143Y-66825000D01*
X110228571Y-66789286D01*
X110371428Y-66789286D01*
X110442857Y-66825000D01*
X110478571Y-66860714D01*
X110514286Y-66932143D01*
X110514286Y-66967857D01*
X110478571Y-67039286D01*
X110442857Y-67075000D01*
X110371428Y-67110714D01*
X110228571Y-67110714D01*
X110157143Y-67146429D01*
X110121428Y-67182143D01*
X110085714Y-67253571D01*
X110085714Y-67396429D01*
X110121428Y-67467857D01*
X110157143Y-67503571D01*
X110228571Y-67539286D01*
X110371428Y-67539286D01*
X110442857Y-67503571D01*
X110478571Y-67467857D01*
X110514286Y-67396429D01*
X110514286Y-67253571D01*
X110478571Y-67182143D01*
X110442857Y-67146429D01*
X110371428Y-67110714D01*
X111071286Y-62815286D02*
X110642714Y-62815286D01*
X110857000Y-62815286D02*
X110857000Y-62065286D01*
X110785571Y-62172429D01*
X110714143Y-62243857D01*
X110642714Y-62279571D01*
X116621428Y-66789286D02*
X116621428Y-67396429D01*
X116657143Y-67467857D01*
X116692857Y-67503571D01*
X116764286Y-67539286D01*
X116907143Y-67539286D01*
X116978571Y-67503571D01*
X117014286Y-67467857D01*
X117050000Y-67396429D01*
X117050000Y-66789286D01*
X117800000Y-67539286D02*
X117371428Y-67539286D01*
X117585714Y-67539286D02*
X117585714Y-66789286D01*
X117514285Y-66896429D01*
X117442857Y-66967857D01*
X117371428Y-67003571D01*
X118157143Y-67539286D02*
X118300000Y-67539286D01*
X118371428Y-67503571D01*
X118407143Y-67467857D01*
X118478571Y-67360714D01*
X118514286Y-67217857D01*
X118514286Y-66932143D01*
X118478571Y-66860714D01*
X118442857Y-66825000D01*
X118371428Y-66789286D01*
X118228571Y-66789286D01*
X118157143Y-66825000D01*
X118121428Y-66860714D01*
X118085714Y-66932143D01*
X118085714Y-67110714D01*
X118121428Y-67182143D01*
X118157143Y-67217857D01*
X118228571Y-67253571D01*
X118371428Y-67253571D01*
X118442857Y-67217857D01*
X118478571Y-67182143D01*
X118514286Y-67110714D01*
X119071286Y-62815286D02*
X118642714Y-62815286D01*
X118857000Y-62815286D02*
X118857000Y-62065286D01*
X118785571Y-62172429D01*
X118714143Y-62243857D01*
X118642714Y-62279571D01*
X124621428Y-66789286D02*
X124621428Y-67396429D01*
X124657143Y-67467857D01*
X124692857Y-67503571D01*
X124764286Y-67539286D01*
X124907143Y-67539286D01*
X124978571Y-67503571D01*
X125014286Y-67467857D01*
X125050000Y-67396429D01*
X125050000Y-66789286D01*
X125371428Y-66860714D02*
X125407142Y-66825000D01*
X125478571Y-66789286D01*
X125657142Y-66789286D01*
X125728571Y-66825000D01*
X125764285Y-66860714D01*
X125800000Y-66932143D01*
X125800000Y-67003571D01*
X125764285Y-67110714D01*
X125335714Y-67539286D01*
X125800000Y-67539286D01*
X126264286Y-66789286D02*
X126335714Y-66789286D01*
X126407143Y-66825000D01*
X126442857Y-66860714D01*
X126478571Y-66932143D01*
X126514286Y-67075000D01*
X126514286Y-67253571D01*
X126478571Y-67396429D01*
X126442857Y-67467857D01*
X126407143Y-67503571D01*
X126335714Y-67539286D01*
X126264286Y-67539286D01*
X126192857Y-67503571D01*
X126157143Y-67467857D01*
X126121428Y-67396429D01*
X126085714Y-67253571D01*
X126085714Y-67075000D01*
X126121428Y-66932143D01*
X126157143Y-66860714D01*
X126192857Y-66825000D01*
X126264286Y-66789286D01*
X127071286Y-62815286D02*
X126642714Y-62815286D01*
X126857000Y-62815286D02*
X126857000Y-62065286D01*
X126785571Y-62172429D01*
X126714143Y-62243857D01*
X126642714Y-62279571D01*
X132621428Y-66789286D02*
X132621428Y-67396429D01*
X132657143Y-67467857D01*
X132692857Y-67503571D01*
X132764286Y-67539286D01*
X132907143Y-67539286D01*
X132978571Y-67503571D01*
X133014286Y-67467857D01*
X133050000Y-67396429D01*
X133050000Y-66789286D01*
X133371428Y-66860714D02*
X133407142Y-66825000D01*
X133478571Y-66789286D01*
X133657142Y-66789286D01*
X133728571Y-66825000D01*
X133764285Y-66860714D01*
X133800000Y-66932143D01*
X133800000Y-67003571D01*
X133764285Y-67110714D01*
X133335714Y-67539286D01*
X133800000Y-67539286D01*
X134514286Y-67539286D02*
X134085714Y-67539286D01*
X134300000Y-67539286D02*
X134300000Y-66789286D01*
X134228571Y-66896429D01*
X134157143Y-66967857D01*
X134085714Y-67003571D01*
X135071286Y-62815286D02*
X134642714Y-62815286D01*
X134857000Y-62815286D02*
X134857000Y-62065286D01*
X134785571Y-62172429D01*
X134714143Y-62243857D01*
X134642714Y-62279571D01*
X140621428Y-66789286D02*
X140621428Y-67396429D01*
X140657143Y-67467857D01*
X140692857Y-67503571D01*
X140764286Y-67539286D01*
X140907143Y-67539286D01*
X140978571Y-67503571D01*
X141014286Y-67467857D01*
X141050000Y-67396429D01*
X141050000Y-66789286D01*
X141371428Y-66860714D02*
X141407142Y-66825000D01*
X141478571Y-66789286D01*
X141657142Y-66789286D01*
X141728571Y-66825000D01*
X141764285Y-66860714D01*
X141800000Y-66932143D01*
X141800000Y-67003571D01*
X141764285Y-67110714D01*
X141335714Y-67539286D01*
X141800000Y-67539286D01*
X142085714Y-66860714D02*
X142121428Y-66825000D01*
X142192857Y-66789286D01*
X142371428Y-66789286D01*
X142442857Y-66825000D01*
X142478571Y-66860714D01*
X142514286Y-66932143D01*
X142514286Y-67003571D01*
X142478571Y-67110714D01*
X142050000Y-67539286D01*
X142514286Y-67539286D01*
X143071286Y-62815286D02*
X142642714Y-62815286D01*
X142857000Y-62815286D02*
X142857000Y-62065286D01*
X142785571Y-62172429D01*
X142714143Y-62243857D01*
X142642714Y-62279571D01*
X148621428Y-66789286D02*
X148621428Y-67396429D01*
X148657143Y-67467857D01*
X148692857Y-67503571D01*
X148764286Y-67539286D01*
X148907143Y-67539286D01*
X148978571Y-67503571D01*
X149014286Y-67467857D01*
X149050000Y-67396429D01*
X149050000Y-66789286D01*
X149371428Y-66860714D02*
X149407142Y-66825000D01*
X149478571Y-66789286D01*
X149657142Y-66789286D01*
X149728571Y-66825000D01*
X149764285Y-66860714D01*
X149800000Y-66932143D01*
X149800000Y-67003571D01*
X149764285Y-67110714D01*
X149335714Y-67539286D01*
X149800000Y-67539286D01*
X150050000Y-66789286D02*
X150514286Y-66789286D01*
X150264286Y-67075000D01*
X150371428Y-67075000D01*
X150442857Y-67110714D01*
X150478571Y-67146429D01*
X150514286Y-67217857D01*
X150514286Y-67396429D01*
X150478571Y-67467857D01*
X150442857Y-67503571D01*
X150371428Y-67539286D01*
X150157143Y-67539286D01*
X150085714Y-67503571D01*
X150050000Y-67467857D01*
X151071286Y-62815286D02*
X150642714Y-62815286D01*
X150857000Y-62815286D02*
X150857000Y-62065286D01*
X150785571Y-62172429D01*
X150714143Y-62243857D01*
X150642714Y-62279571D01*
X156621428Y-66789286D02*
X156621428Y-67396429D01*
X156657143Y-67467857D01*
X156692857Y-67503571D01*
X156764286Y-67539286D01*
X156907143Y-67539286D01*
X156978571Y-67503571D01*
X157014286Y-67467857D01*
X157050000Y-67396429D01*
X157050000Y-66789286D01*
X157371428Y-66860714D02*
X157407142Y-66825000D01*
X157478571Y-66789286D01*
X157657142Y-66789286D01*
X157728571Y-66825000D01*
X157764285Y-66860714D01*
X157800000Y-66932143D01*
X157800000Y-67003571D01*
X157764285Y-67110714D01*
X157335714Y-67539286D01*
X157800000Y-67539286D01*
X158442857Y-67039286D02*
X158442857Y-67539286D01*
X158264286Y-66753571D02*
X158085714Y-67289286D01*
X158550000Y-67289286D01*
X159071286Y-62815286D02*
X158642714Y-62815286D01*
X158857000Y-62815286D02*
X158857000Y-62065286D01*
X158785571Y-62172429D01*
X158714143Y-62243857D01*
X158642714Y-62279571D01*
X74071428Y-75089286D02*
X74071428Y-75696429D01*
X74107143Y-75767857D01*
X74142857Y-75803571D01*
X74214286Y-75839286D01*
X74357143Y-75839286D01*
X74428571Y-75803571D01*
X74464286Y-75767857D01*
X74500000Y-75696429D01*
X74500000Y-75089286D01*
X74821428Y-75160714D02*
X74857142Y-75125000D01*
X74928571Y-75089286D01*
X75107142Y-75089286D01*
X75178571Y-75125000D01*
X75214285Y-75160714D01*
X75250000Y-75232143D01*
X75250000Y-75303571D01*
X75214285Y-75410714D01*
X74785714Y-75839286D01*
X75250000Y-75839286D01*
X75928571Y-75089286D02*
X75571428Y-75089286D01*
X75535714Y-75446429D01*
X75571428Y-75410714D01*
X75642857Y-75375000D01*
X75821428Y-75375000D01*
X75892857Y-75410714D01*
X75928571Y-75446429D01*
X75964286Y-75517857D01*
X75964286Y-75696429D01*
X75928571Y-75767857D01*
X75892857Y-75803571D01*
X75821428Y-75839286D01*
X75642857Y-75839286D01*
X75571428Y-75803571D01*
X75535714Y-75767857D01*
X73357286Y-73863286D02*
X72928714Y-73863286D01*
X73143000Y-73863286D02*
X73143000Y-73113286D01*
X73071571Y-73220429D01*
X73000143Y-73291857D01*
X72928714Y-73327571D01*
X81521428Y-68389286D02*
X81521428Y-68996429D01*
X81557143Y-69067857D01*
X81592857Y-69103571D01*
X81664286Y-69139286D01*
X81807143Y-69139286D01*
X81878571Y-69103571D01*
X81914286Y-69067857D01*
X81950000Y-68996429D01*
X81950000Y-68389286D01*
X82271428Y-68460714D02*
X82307142Y-68425000D01*
X82378571Y-68389286D01*
X82557142Y-68389286D01*
X82628571Y-68425000D01*
X82664285Y-68460714D01*
X82700000Y-68532143D01*
X82700000Y-68603571D01*
X82664285Y-68710714D01*
X82235714Y-69139286D01*
X82700000Y-69139286D01*
X83342857Y-68389286D02*
X83200000Y-68389286D01*
X83128571Y-68425000D01*
X83092857Y-68460714D01*
X83021428Y-68567857D01*
X82985714Y-68710714D01*
X82985714Y-68996429D01*
X83021428Y-69067857D01*
X83057143Y-69103571D01*
X83128571Y-69139286D01*
X83271428Y-69139286D01*
X83342857Y-69103571D01*
X83378571Y-69067857D01*
X83414286Y-68996429D01*
X83414286Y-68817857D01*
X83378571Y-68746429D01*
X83342857Y-68710714D01*
X83271428Y-68675000D01*
X83128571Y-68675000D01*
X83057143Y-68710714D01*
X83021428Y-68746429D01*
X82985714Y-68817857D01*
X81357286Y-73863286D02*
X80928714Y-73863286D01*
X81143000Y-73863286D02*
X81143000Y-73113286D01*
X81071571Y-73220429D01*
X81000143Y-73291857D01*
X80928714Y-73327571D01*
X89521428Y-68389286D02*
X89521428Y-68996429D01*
X89557143Y-69067857D01*
X89592857Y-69103571D01*
X89664286Y-69139286D01*
X89807143Y-69139286D01*
X89878571Y-69103571D01*
X89914286Y-69067857D01*
X89950000Y-68996429D01*
X89950000Y-68389286D01*
X90271428Y-68460714D02*
X90307142Y-68425000D01*
X90378571Y-68389286D01*
X90557142Y-68389286D01*
X90628571Y-68425000D01*
X90664285Y-68460714D01*
X90700000Y-68532143D01*
X90700000Y-68603571D01*
X90664285Y-68710714D01*
X90235714Y-69139286D01*
X90700000Y-69139286D01*
X90950000Y-68389286D02*
X91450000Y-68389286D01*
X91128571Y-69139286D01*
X89357286Y-73863286D02*
X88928714Y-73863286D01*
X89143000Y-73863286D02*
X89143000Y-73113286D01*
X89071571Y-73220429D01*
X89000143Y-73291857D01*
X88928714Y-73327571D01*
X97521428Y-68389286D02*
X97521428Y-68996429D01*
X97557143Y-69067857D01*
X97592857Y-69103571D01*
X97664286Y-69139286D01*
X97807143Y-69139286D01*
X97878571Y-69103571D01*
X97914286Y-69067857D01*
X97950000Y-68996429D01*
X97950000Y-68389286D01*
X98271428Y-68460714D02*
X98307142Y-68425000D01*
X98378571Y-68389286D01*
X98557142Y-68389286D01*
X98628571Y-68425000D01*
X98664285Y-68460714D01*
X98700000Y-68532143D01*
X98700000Y-68603571D01*
X98664285Y-68710714D01*
X98235714Y-69139286D01*
X98700000Y-69139286D01*
X99128571Y-68710714D02*
X99057143Y-68675000D01*
X99021428Y-68639286D01*
X98985714Y-68567857D01*
X98985714Y-68532143D01*
X99021428Y-68460714D01*
X99057143Y-68425000D01*
X99128571Y-68389286D01*
X99271428Y-68389286D01*
X99342857Y-68425000D01*
X99378571Y-68460714D01*
X99414286Y-68532143D01*
X99414286Y-68567857D01*
X99378571Y-68639286D01*
X99342857Y-68675000D01*
X99271428Y-68710714D01*
X99128571Y-68710714D01*
X99057143Y-68746429D01*
X99021428Y-68782143D01*
X98985714Y-68853571D01*
X98985714Y-68996429D01*
X99021428Y-69067857D01*
X99057143Y-69103571D01*
X99128571Y-69139286D01*
X99271428Y-69139286D01*
X99342857Y-69103571D01*
X99378571Y-69067857D01*
X99414286Y-68996429D01*
X99414286Y-68853571D01*
X99378571Y-68782143D01*
X99342857Y-68746429D01*
X99271428Y-68710714D01*
X97357286Y-73863286D02*
X96928714Y-73863286D01*
X97143000Y-73863286D02*
X97143000Y-73113286D01*
X97071571Y-73220429D01*
X97000143Y-73291857D01*
X96928714Y-73327571D01*
X105521428Y-68389286D02*
X105521428Y-68996429D01*
X105557143Y-69067857D01*
X105592857Y-69103571D01*
X105664286Y-69139286D01*
X105807143Y-69139286D01*
X105878571Y-69103571D01*
X105914286Y-69067857D01*
X105950000Y-68996429D01*
X105950000Y-68389286D01*
X106271428Y-68460714D02*
X106307142Y-68425000D01*
X106378571Y-68389286D01*
X106557142Y-68389286D01*
X106628571Y-68425000D01*
X106664285Y-68460714D01*
X106700000Y-68532143D01*
X106700000Y-68603571D01*
X106664285Y-68710714D01*
X106235714Y-69139286D01*
X106700000Y-69139286D01*
X107057143Y-69139286D02*
X107200000Y-69139286D01*
X107271428Y-69103571D01*
X107307143Y-69067857D01*
X107378571Y-68960714D01*
X107414286Y-68817857D01*
X107414286Y-68532143D01*
X107378571Y-68460714D01*
X107342857Y-68425000D01*
X107271428Y-68389286D01*
X107128571Y-68389286D01*
X107057143Y-68425000D01*
X107021428Y-68460714D01*
X106985714Y-68532143D01*
X106985714Y-68710714D01*
X107021428Y-68782143D01*
X107057143Y-68817857D01*
X107128571Y-68853571D01*
X107271428Y-68853571D01*
X107342857Y-68817857D01*
X107378571Y-68782143D01*
X107414286Y-68710714D01*
X105357286Y-73863286D02*
X104928714Y-73863286D01*
X105143000Y-73863286D02*
X105143000Y-73113286D01*
X105071571Y-73220429D01*
X105000143Y-73291857D01*
X104928714Y-73327571D01*
X113521428Y-68389286D02*
X113521428Y-68996429D01*
X113557143Y-69067857D01*
X113592857Y-69103571D01*
X113664286Y-69139286D01*
X113807143Y-69139286D01*
X113878571Y-69103571D01*
X113914286Y-69067857D01*
X113950000Y-68996429D01*
X113950000Y-68389286D01*
X114235714Y-68389286D02*
X114700000Y-68389286D01*
X114450000Y-68675000D01*
X114557142Y-68675000D01*
X114628571Y-68710714D01*
X114664285Y-68746429D01*
X114700000Y-68817857D01*
X114700000Y-68996429D01*
X114664285Y-69067857D01*
X114628571Y-69103571D01*
X114557142Y-69139286D01*
X114342857Y-69139286D01*
X114271428Y-69103571D01*
X114235714Y-69067857D01*
X115164286Y-68389286D02*
X115235714Y-68389286D01*
X115307143Y-68425000D01*
X115342857Y-68460714D01*
X115378571Y-68532143D01*
X115414286Y-68675000D01*
X115414286Y-68853571D01*
X115378571Y-68996429D01*
X115342857Y-69067857D01*
X115307143Y-69103571D01*
X115235714Y-69139286D01*
X115164286Y-69139286D01*
X115092857Y-69103571D01*
X115057143Y-69067857D01*
X115021428Y-68996429D01*
X114985714Y-68853571D01*
X114985714Y-68675000D01*
X115021428Y-68532143D01*
X115057143Y-68460714D01*
X115092857Y-68425000D01*
X115164286Y-68389286D01*
X113357286Y-73863286D02*
X112928714Y-73863286D01*
X113143000Y-73863286D02*
X113143000Y-73113286D01*
X113071571Y-73220429D01*
X113000143Y-73291857D01*
X112928714Y-73327571D01*
X121521428Y-68389286D02*
X121521428Y-68996429D01*
X121557143Y-69067857D01*
X121592857Y-69103571D01*
X121664286Y-69139286D01*
X121807143Y-69139286D01*
X121878571Y-69103571D01*
X121914286Y-69067857D01*
X121950000Y-68996429D01*
X121950000Y-68389286D01*
X122235714Y-68389286D02*
X122700000Y-68389286D01*
X122450000Y-68675000D01*
X122557142Y-68675000D01*
X122628571Y-68710714D01*
X122664285Y-68746429D01*
X122700000Y-68817857D01*
X122700000Y-68996429D01*
X122664285Y-69067857D01*
X122628571Y-69103571D01*
X122557142Y-69139286D01*
X122342857Y-69139286D01*
X122271428Y-69103571D01*
X122235714Y-69067857D01*
X123414286Y-69139286D02*
X122985714Y-69139286D01*
X123200000Y-69139286D02*
X123200000Y-68389286D01*
X123128571Y-68496429D01*
X123057143Y-68567857D01*
X122985714Y-68603571D01*
X121357286Y-73863286D02*
X120928714Y-73863286D01*
X121143000Y-73863286D02*
X121143000Y-73113286D01*
X121071571Y-73220429D01*
X121000143Y-73291857D01*
X120928714Y-73327571D01*
X129521428Y-68389286D02*
X129521428Y-68996429D01*
X129557143Y-69067857D01*
X129592857Y-69103571D01*
X129664286Y-69139286D01*
X129807143Y-69139286D01*
X129878571Y-69103571D01*
X129914286Y-69067857D01*
X129950000Y-68996429D01*
X129950000Y-68389286D01*
X130235714Y-68389286D02*
X130700000Y-68389286D01*
X130450000Y-68675000D01*
X130557142Y-68675000D01*
X130628571Y-68710714D01*
X130664285Y-68746429D01*
X130700000Y-68817857D01*
X130700000Y-68996429D01*
X130664285Y-69067857D01*
X130628571Y-69103571D01*
X130557142Y-69139286D01*
X130342857Y-69139286D01*
X130271428Y-69103571D01*
X130235714Y-69067857D01*
X130985714Y-68460714D02*
X131021428Y-68425000D01*
X131092857Y-68389286D01*
X131271428Y-68389286D01*
X131342857Y-68425000D01*
X131378571Y-68460714D01*
X131414286Y-68532143D01*
X131414286Y-68603571D01*
X131378571Y-68710714D01*
X130950000Y-69139286D01*
X131414286Y-69139286D01*
X129357286Y-73863286D02*
X128928714Y-73863286D01*
X129143000Y-73863286D02*
X129143000Y-73113286D01*
X129071571Y-73220429D01*
X129000143Y-73291857D01*
X128928714Y-73327571D01*
X137521428Y-68389286D02*
X137521428Y-68996429D01*
X137557143Y-69067857D01*
X137592857Y-69103571D01*
X137664286Y-69139286D01*
X137807143Y-69139286D01*
X137878571Y-69103571D01*
X137914286Y-69067857D01*
X137950000Y-68996429D01*
X137950000Y-68389286D01*
X138235714Y-68389286D02*
X138700000Y-68389286D01*
X138450000Y-68675000D01*
X138557142Y-68675000D01*
X138628571Y-68710714D01*
X138664285Y-68746429D01*
X138700000Y-68817857D01*
X138700000Y-68996429D01*
X138664285Y-69067857D01*
X138628571Y-69103571D01*
X138557142Y-69139286D01*
X138342857Y-69139286D01*
X138271428Y-69103571D01*
X138235714Y-69067857D01*
X138950000Y-68389286D02*
X139414286Y-68389286D01*
X139164286Y-68675000D01*
X139271428Y-68675000D01*
X139342857Y-68710714D01*
X139378571Y-68746429D01*
X139414286Y-68817857D01*
X139414286Y-68996429D01*
X139378571Y-69067857D01*
X139342857Y-69103571D01*
X139271428Y-69139286D01*
X139057143Y-69139286D01*
X138985714Y-69103571D01*
X138950000Y-69067857D01*
X137357286Y-73863286D02*
X136928714Y-73863286D01*
X137143000Y-73863286D02*
X137143000Y-73113286D01*
X137071571Y-73220429D01*
X137000143Y-73291857D01*
X136928714Y-73327571D01*
X145521428Y-68389286D02*
X145521428Y-68996429D01*
X145557143Y-69067857D01*
X145592857Y-69103571D01*
X145664286Y-69139286D01*
X145807143Y-69139286D01*
X145878571Y-69103571D01*
X145914286Y-69067857D01*
X145950000Y-68996429D01*
X145950000Y-68389286D01*
X146235714Y-68389286D02*
X146700000Y-68389286D01*
X146450000Y-68675000D01*
X146557142Y-68675000D01*
X146628571Y-68710714D01*
X146664285Y-68746429D01*
X146700000Y-68817857D01*
X146700000Y-68996429D01*
X146664285Y-69067857D01*
X146628571Y-69103571D01*
X146557142Y-69139286D01*
X146342857Y-69139286D01*
X146271428Y-69103571D01*
X146235714Y-69067857D01*
X147342857Y-68639286D02*
X147342857Y-69139286D01*
X147164286Y-68353571D02*
X146985714Y-68889286D01*
X147450000Y-68889286D01*
X145357286Y-73863286D02*
X144928714Y-73863286D01*
X145143000Y-73863286D02*
X145143000Y-73113286D01*
X145071571Y-73220429D01*
X145000143Y-73291857D01*
X144928714Y-73327571D01*
X153521428Y-68389286D02*
X153521428Y-68996429D01*
X153557143Y-69067857D01*
X153592857Y-69103571D01*
X153664286Y-69139286D01*
X153807143Y-69139286D01*
X153878571Y-69103571D01*
X153914286Y-69067857D01*
X153950000Y-68996429D01*
X153950000Y-68389286D01*
X154235714Y-68389286D02*
X154700000Y-68389286D01*
X154450000Y-68675000D01*
X154557142Y-68675000D01*
X154628571Y-68710714D01*
X154664285Y-68746429D01*
X154700000Y-68817857D01*
X154700000Y-68996429D01*
X154664285Y-69067857D01*
X154628571Y-69103571D01*
X154557142Y-69139286D01*
X154342857Y-69139286D01*
X154271428Y-69103571D01*
X154235714Y-69067857D01*
X155378571Y-68389286D02*
X155021428Y-68389286D01*
X154985714Y-68746429D01*
X155021428Y-68710714D01*
X155092857Y-68675000D01*
X155271428Y-68675000D01*
X155342857Y-68710714D01*
X155378571Y-68746429D01*
X155414286Y-68817857D01*
X155414286Y-68996429D01*
X155378571Y-69067857D01*
X155342857Y-69103571D01*
X155271428Y-69139286D01*
X155092857Y-69139286D01*
X155021428Y-69103571D01*
X154985714Y-69067857D01*
X153357286Y-73863286D02*
X152928714Y-73863286D01*
X153143000Y-73863286D02*
X153143000Y-73113286D01*
X153071571Y-73220429D01*
X153000143Y-73291857D01*
X152928714Y-73327571D01*
X156071428Y-75089286D02*
X156071428Y-75696429D01*
X156107143Y-75767857D01*
X156142857Y-75803571D01*
X156214286Y-75839286D01*
X156357143Y-75839286D01*
X156428571Y-75803571D01*
X156464286Y-75767857D01*
X156500000Y-75696429D01*
X156500000Y-75089286D01*
X156785714Y-75089286D02*
X157250000Y-75089286D01*
X157000000Y-75375000D01*
X157107142Y-75375000D01*
X157178571Y-75410714D01*
X157214285Y-75446429D01*
X157250000Y-75517857D01*
X157250000Y-75696429D01*
X157214285Y-75767857D01*
X157178571Y-75803571D01*
X157107142Y-75839286D01*
X156892857Y-75839286D01*
X156821428Y-75803571D01*
X156785714Y-75767857D01*
X157892857Y-75089286D02*
X157750000Y-75089286D01*
X157678571Y-75125000D01*
X157642857Y-75160714D01*
X157571428Y-75267857D01*
X157535714Y-75410714D01*
X157535714Y-75696429D01*
X157571428Y-75767857D01*
X157607143Y-75803571D01*
X157678571Y-75839286D01*
X157821428Y-75839286D01*
X157892857Y-75803571D01*
X157928571Y-75767857D01*
X157964286Y-75696429D01*
X157964286Y-75517857D01*
X157928571Y-75446429D01*
X157892857Y-75410714D01*
X157821428Y-75375000D01*
X157678571Y-75375000D01*
X157607143Y-75410714D01*
X157571428Y-75446429D01*
X157535714Y-75517857D01*
X161357286Y-73863286D02*
X160928714Y-73863286D01*
X161143000Y-73863286D02*
X161143000Y-73113286D01*
X161071571Y-73220429D01*
X161000143Y-73291857D01*
X160928714Y-73327571D01*
X68621428Y-82789286D02*
X68621428Y-83396429D01*
X68657143Y-83467857D01*
X68692857Y-83503571D01*
X68764286Y-83539286D01*
X68907143Y-83539286D01*
X68978571Y-83503571D01*
X69014286Y-83467857D01*
X69050000Y-83396429D01*
X69050000Y-82789286D01*
X69335714Y-82789286D02*
X69800000Y-82789286D01*
X69550000Y-83075000D01*
X69657142Y-83075000D01*
X69728571Y-83110714D01*
X69764285Y-83146429D01*
X69800000Y-83217857D01*
X69800000Y-83396429D01*
X69764285Y-83467857D01*
X69728571Y-83503571D01*
X69657142Y-83539286D01*
X69442857Y-83539286D01*
X69371428Y-83503571D01*
X69335714Y-83467857D01*
X70050000Y-82789286D02*
X70550000Y-82789286D01*
X70228571Y-83539286D01*
X71071286Y-78815286D02*
X70642714Y-78815286D01*
X70857000Y-78815286D02*
X70857000Y-78065286D01*
X70785571Y-78172429D01*
X70714143Y-78243857D01*
X70642714Y-78279571D01*
X76621428Y-82789286D02*
X76621428Y-83396429D01*
X76657143Y-83467857D01*
X76692857Y-83503571D01*
X76764286Y-83539286D01*
X76907143Y-83539286D01*
X76978571Y-83503571D01*
X77014286Y-83467857D01*
X77050000Y-83396429D01*
X77050000Y-82789286D01*
X77335714Y-82789286D02*
X77800000Y-82789286D01*
X77550000Y-83075000D01*
X77657142Y-83075000D01*
X77728571Y-83110714D01*
X77764285Y-83146429D01*
X77800000Y-83217857D01*
X77800000Y-83396429D01*
X77764285Y-83467857D01*
X77728571Y-83503571D01*
X77657142Y-83539286D01*
X77442857Y-83539286D01*
X77371428Y-83503571D01*
X77335714Y-83467857D01*
X78228571Y-83110714D02*
X78157143Y-83075000D01*
X78121428Y-83039286D01*
X78085714Y-82967857D01*
X78085714Y-82932143D01*
X78121428Y-82860714D01*
X78157143Y-82825000D01*
X78228571Y-82789286D01*
X78371428Y-82789286D01*
X78442857Y-82825000D01*
X78478571Y-82860714D01*
X78514286Y-82932143D01*
X78514286Y-82967857D01*
X78478571Y-83039286D01*
X78442857Y-83075000D01*
X78371428Y-83110714D01*
X78228571Y-83110714D01*
X78157143Y-83146429D01*
X78121428Y-83182143D01*
X78085714Y-83253571D01*
X78085714Y-83396429D01*
X78121428Y-83467857D01*
X78157143Y-83503571D01*
X78228571Y-83539286D01*
X78371428Y-83539286D01*
X78442857Y-83503571D01*
X78478571Y-83467857D01*
X78514286Y-83396429D01*
X78514286Y-83253571D01*
X78478571Y-83182143D01*
X78442857Y-83146429D01*
X78371428Y-83110714D01*
X79071286Y-78815286D02*
X78642714Y-78815286D01*
X78857000Y-78815286D02*
X78857000Y-78065286D01*
X78785571Y-78172429D01*
X78714143Y-78243857D01*
X78642714Y-78279571D01*
X84621428Y-82789286D02*
X84621428Y-83396429D01*
X84657143Y-83467857D01*
X84692857Y-83503571D01*
X84764286Y-83539286D01*
X84907143Y-83539286D01*
X84978571Y-83503571D01*
X85014286Y-83467857D01*
X85050000Y-83396429D01*
X85050000Y-82789286D01*
X85335714Y-82789286D02*
X85800000Y-82789286D01*
X85550000Y-83075000D01*
X85657142Y-83075000D01*
X85728571Y-83110714D01*
X85764285Y-83146429D01*
X85800000Y-83217857D01*
X85800000Y-83396429D01*
X85764285Y-83467857D01*
X85728571Y-83503571D01*
X85657142Y-83539286D01*
X85442857Y-83539286D01*
X85371428Y-83503571D01*
X85335714Y-83467857D01*
X86157143Y-83539286D02*
X86300000Y-83539286D01*
X86371428Y-83503571D01*
X86407143Y-83467857D01*
X86478571Y-83360714D01*
X86514286Y-83217857D01*
X86514286Y-82932143D01*
X86478571Y-82860714D01*
X86442857Y-82825000D01*
X86371428Y-82789286D01*
X86228571Y-82789286D01*
X86157143Y-82825000D01*
X86121428Y-82860714D01*
X86085714Y-82932143D01*
X86085714Y-83110714D01*
X86121428Y-83182143D01*
X86157143Y-83217857D01*
X86228571Y-83253571D01*
X86371428Y-83253571D01*
X86442857Y-83217857D01*
X86478571Y-83182143D01*
X86514286Y-83110714D01*
X87071286Y-78815286D02*
X86642714Y-78815286D01*
X86857000Y-78815286D02*
X86857000Y-78065286D01*
X86785571Y-78172429D01*
X86714143Y-78243857D01*
X86642714Y-78279571D01*
X92621428Y-82789286D02*
X92621428Y-83396429D01*
X92657143Y-83467857D01*
X92692857Y-83503571D01*
X92764286Y-83539286D01*
X92907143Y-83539286D01*
X92978571Y-83503571D01*
X93014286Y-83467857D01*
X93050000Y-83396429D01*
X93050000Y-82789286D01*
X93728571Y-83039286D02*
X93728571Y-83539286D01*
X93550000Y-82753571D02*
X93371428Y-83289286D01*
X93835714Y-83289286D01*
X94264286Y-82789286D02*
X94335714Y-82789286D01*
X94407143Y-82825000D01*
X94442857Y-82860714D01*
X94478571Y-82932143D01*
X94514286Y-83075000D01*
X94514286Y-83253571D01*
X94478571Y-83396429D01*
X94442857Y-83467857D01*
X94407143Y-83503571D01*
X94335714Y-83539286D01*
X94264286Y-83539286D01*
X94192857Y-83503571D01*
X94157143Y-83467857D01*
X94121428Y-83396429D01*
X94085714Y-83253571D01*
X94085714Y-83075000D01*
X94121428Y-82932143D01*
X94157143Y-82860714D01*
X94192857Y-82825000D01*
X94264286Y-82789286D01*
X95071286Y-78815286D02*
X94642714Y-78815286D01*
X94857000Y-78815286D02*
X94857000Y-78065286D01*
X94785571Y-78172429D01*
X94714143Y-78243857D01*
X94642714Y-78279571D01*
X100621428Y-82789286D02*
X100621428Y-83396429D01*
X100657143Y-83467857D01*
X100692857Y-83503571D01*
X100764286Y-83539286D01*
X100907143Y-83539286D01*
X100978571Y-83503571D01*
X101014286Y-83467857D01*
X101050000Y-83396429D01*
X101050000Y-82789286D01*
X101728571Y-83039286D02*
X101728571Y-83539286D01*
X101550000Y-82753571D02*
X101371428Y-83289286D01*
X101835714Y-83289286D01*
X102514286Y-83539286D02*
X102085714Y-83539286D01*
X102300000Y-83539286D02*
X102300000Y-82789286D01*
X102228571Y-82896429D01*
X102157143Y-82967857D01*
X102085714Y-83003571D01*
X103071286Y-78815286D02*
X102642714Y-78815286D01*
X102857000Y-78815286D02*
X102857000Y-78065286D01*
X102785571Y-78172429D01*
X102714143Y-78243857D01*
X102642714Y-78279571D01*
X108621428Y-82789286D02*
X108621428Y-83396429D01*
X108657143Y-83467857D01*
X108692857Y-83503571D01*
X108764286Y-83539286D01*
X108907143Y-83539286D01*
X108978571Y-83503571D01*
X109014286Y-83467857D01*
X109050000Y-83396429D01*
X109050000Y-82789286D01*
X109728571Y-83039286D02*
X109728571Y-83539286D01*
X109550000Y-82753571D02*
X109371428Y-83289286D01*
X109835714Y-83289286D01*
X110085714Y-82860714D02*
X110121428Y-82825000D01*
X110192857Y-82789286D01*
X110371428Y-82789286D01*
X110442857Y-82825000D01*
X110478571Y-82860714D01*
X110514286Y-82932143D01*
X110514286Y-83003571D01*
X110478571Y-83110714D01*
X110050000Y-83539286D01*
X110514286Y-83539286D01*
X111071286Y-78815286D02*
X110642714Y-78815286D01*
X110857000Y-78815286D02*
X110857000Y-78065286D01*
X110785571Y-78172429D01*
X110714143Y-78243857D01*
X110642714Y-78279571D01*
X116621428Y-82789286D02*
X116621428Y-83396429D01*
X116657143Y-83467857D01*
X116692857Y-83503571D01*
X116764286Y-83539286D01*
X116907143Y-83539286D01*
X116978571Y-83503571D01*
X117014286Y-83467857D01*
X117050000Y-83396429D01*
X117050000Y-82789286D01*
X117728571Y-83039286D02*
X117728571Y-83539286D01*
X117550000Y-82753571D02*
X117371428Y-83289286D01*
X117835714Y-83289286D01*
X118050000Y-82789286D02*
X118514286Y-82789286D01*
X118264286Y-83075000D01*
X118371428Y-83075000D01*
X118442857Y-83110714D01*
X118478571Y-83146429D01*
X118514286Y-83217857D01*
X118514286Y-83396429D01*
X118478571Y-83467857D01*
X118442857Y-83503571D01*
X118371428Y-83539286D01*
X118157143Y-83539286D01*
X118085714Y-83503571D01*
X118050000Y-83467857D01*
X119071286Y-78815286D02*
X118642714Y-78815286D01*
X118857000Y-78815286D02*
X118857000Y-78065286D01*
X118785571Y-78172429D01*
X118714143Y-78243857D01*
X118642714Y-78279571D01*
X124621428Y-82789286D02*
X124621428Y-83396429D01*
X124657143Y-83467857D01*
X124692857Y-83503571D01*
X124764286Y-83539286D01*
X124907143Y-83539286D01*
X124978571Y-83503571D01*
X125014286Y-83467857D01*
X125050000Y-83396429D01*
X125050000Y-82789286D01*
X125728571Y-83039286D02*
X125728571Y-83539286D01*
X125550000Y-82753571D02*
X125371428Y-83289286D01*
X125835714Y-83289286D01*
X126442857Y-83039286D02*
X126442857Y-83539286D01*
X126264286Y-82753571D02*
X126085714Y-83289286D01*
X126550000Y-83289286D01*
X127071286Y-78815286D02*
X126642714Y-78815286D01*
X126857000Y-78815286D02*
X126857000Y-78065286D01*
X126785571Y-78172429D01*
X126714143Y-78243857D01*
X126642714Y-78279571D01*
X132621428Y-82789286D02*
X132621428Y-83396429D01*
X132657143Y-83467857D01*
X132692857Y-83503571D01*
X132764286Y-83539286D01*
X132907143Y-83539286D01*
X132978571Y-83503571D01*
X133014286Y-83467857D01*
X133050000Y-83396429D01*
X133050000Y-82789286D01*
X133728571Y-83039286D02*
X133728571Y-83539286D01*
X133550000Y-82753571D02*
X133371428Y-83289286D01*
X133835714Y-83289286D01*
X134478571Y-82789286D02*
X134121428Y-82789286D01*
X134085714Y-83146429D01*
X134121428Y-83110714D01*
X134192857Y-83075000D01*
X134371428Y-83075000D01*
X134442857Y-83110714D01*
X134478571Y-83146429D01*
X134514286Y-83217857D01*
X134514286Y-83396429D01*
X134478571Y-83467857D01*
X134442857Y-83503571D01*
X134371428Y-83539286D01*
X134192857Y-83539286D01*
X134121428Y-83503571D01*
X134085714Y-83467857D01*
X135071286Y-78815286D02*
X134642714Y-78815286D01*
X134857000Y-78815286D02*
X134857000Y-78065286D01*
X134785571Y-78172429D01*
X134714143Y-78243857D01*
X134642714Y-78279571D01*
X140621428Y-82789286D02*
X140621428Y-83396429D01*
X140657143Y-83467857D01*
X140692857Y-83503571D01*
X140764286Y-83539286D01*
X140907143Y-83539286D01*
X140978571Y-83503571D01*
X141014286Y-83467857D01*
X141050000Y-83396429D01*
X141050000Y-82789286D01*
X141728571Y-83039286D02*
X141728571Y-83539286D01*
X141550000Y-82753571D02*
X141371428Y-83289286D01*
X141835714Y-83289286D01*
X142442857Y-82789286D02*
X142300000Y-82789286D01*
X142228571Y-82825000D01*
X142192857Y-82860714D01*
X142121428Y-82967857D01*
X142085714Y-83110714D01*
X142085714Y-83396429D01*
X142121428Y-83467857D01*
X142157143Y-83503571D01*
X142228571Y-83539286D01*
X142371428Y-83539286D01*
X142442857Y-83503571D01*
X142478571Y-83467857D01*
X142514286Y-83396429D01*
X142514286Y-83217857D01*
X142478571Y-83146429D01*
X142442857Y-83110714D01*
X142371428Y-83075000D01*
X142228571Y-83075000D01*
X142157143Y-83110714D01*
X142121428Y-83146429D01*
X142085714Y-83217857D01*
X143071286Y-78815286D02*
X142642714Y-78815286D01*
X142857000Y-78815286D02*
X142857000Y-78065286D01*
X142785571Y-78172429D01*
X142714143Y-78243857D01*
X142642714Y-78279571D01*
X148621428Y-82789286D02*
X148621428Y-83396429D01*
X148657143Y-83467857D01*
X148692857Y-83503571D01*
X148764286Y-83539286D01*
X148907143Y-83539286D01*
X148978571Y-83503571D01*
X149014286Y-83467857D01*
X149050000Y-83396429D01*
X149050000Y-82789286D01*
X149728571Y-83039286D02*
X149728571Y-83539286D01*
X149550000Y-82753571D02*
X149371428Y-83289286D01*
X149835714Y-83289286D01*
X150050000Y-82789286D02*
X150550000Y-82789286D01*
X150228571Y-83539286D01*
X151071286Y-78815286D02*
X150642714Y-78815286D01*
X150857000Y-78815286D02*
X150857000Y-78065286D01*
X150785571Y-78172429D01*
X150714143Y-78243857D01*
X150642714Y-78279571D01*
X156621428Y-82789286D02*
X156621428Y-83396429D01*
X156657143Y-83467857D01*
X156692857Y-83503571D01*
X156764286Y-83539286D01*
X156907143Y-83539286D01*
X156978571Y-83503571D01*
X157014286Y-83467857D01*
X157050000Y-83396429D01*
X157050000Y-82789286D01*
X157728571Y-83039286D02*
X157728571Y-83539286D01*
X157550000Y-82753571D02*
X157371428Y-83289286D01*
X157835714Y-83289286D01*
X158228571Y-83110714D02*
X158157143Y-83075000D01*
X158121428Y-83039286D01*
X158085714Y-82967857D01*
X158085714Y-82932143D01*
X158121428Y-82860714D01*
X158157143Y-82825000D01*
X158228571Y-82789286D01*
X158371428Y-82789286D01*
X158442857Y-82825000D01*
X158478571Y-82860714D01*
X158514286Y-82932143D01*
X158514286Y-82967857D01*
X158478571Y-83039286D01*
X158442857Y-83075000D01*
X158371428Y-83110714D01*
X158228571Y-83110714D01*
X158157143Y-83146429D01*
X158121428Y-83182143D01*
X158085714Y-83253571D01*
X158085714Y-83396429D01*
X158121428Y-83467857D01*
X158157143Y-83503571D01*
X158228571Y-83539286D01*
X158371428Y-83539286D01*
X158442857Y-83503571D01*
X158478571Y-83467857D01*
X158514286Y-83396429D01*
X158514286Y-83253571D01*
X158478571Y-83182143D01*
X158442857Y-83146429D01*
X158371428Y-83110714D01*
X159071286Y-78815286D02*
X158642714Y-78815286D01*
X158857000Y-78815286D02*
X158857000Y-78065286D01*
X158785571Y-78172429D01*
X158714143Y-78243857D01*
X158642714Y-78279571D01*
X73521428Y-84389286D02*
X73521428Y-84996429D01*
X73557143Y-85067857D01*
X73592857Y-85103571D01*
X73664286Y-85139286D01*
X73807143Y-85139286D01*
X73878571Y-85103571D01*
X73914286Y-85067857D01*
X73950000Y-84996429D01*
X73950000Y-84389286D01*
X74628571Y-84639286D02*
X74628571Y-85139286D01*
X74450000Y-84353571D02*
X74271428Y-84889286D01*
X74735714Y-84889286D01*
X75057143Y-85139286D02*
X75200000Y-85139286D01*
X75271428Y-85103571D01*
X75307143Y-85067857D01*
X75378571Y-84960714D01*
X75414286Y-84817857D01*
X75414286Y-84532143D01*
X75378571Y-84460714D01*
X75342857Y-84425000D01*
X75271428Y-84389286D01*
X75128571Y-84389286D01*
X75057143Y-84425000D01*
X75021428Y-84460714D01*
X74985714Y-84532143D01*
X74985714Y-84710714D01*
X75021428Y-84782143D01*
X75057143Y-84817857D01*
X75128571Y-84853571D01*
X75271428Y-84853571D01*
X75342857Y-84817857D01*
X75378571Y-84782143D01*
X75414286Y-84710714D01*
X73357286Y-89863286D02*
X72928714Y-89863286D01*
X73143000Y-89863286D02*
X73143000Y-89113286D01*
X73071571Y-89220429D01*
X73000143Y-89291857D01*
X72928714Y-89327571D01*
X81521428Y-84389286D02*
X81521428Y-84996429D01*
X81557143Y-85067857D01*
X81592857Y-85103571D01*
X81664286Y-85139286D01*
X81807143Y-85139286D01*
X81878571Y-85103571D01*
X81914286Y-85067857D01*
X81950000Y-84996429D01*
X81950000Y-84389286D01*
X82664285Y-84389286D02*
X82307142Y-84389286D01*
X82271428Y-84746429D01*
X82307142Y-84710714D01*
X82378571Y-84675000D01*
X82557142Y-84675000D01*
X82628571Y-84710714D01*
X82664285Y-84746429D01*
X82700000Y-84817857D01*
X82700000Y-84996429D01*
X82664285Y-85067857D01*
X82628571Y-85103571D01*
X82557142Y-85139286D01*
X82378571Y-85139286D01*
X82307142Y-85103571D01*
X82271428Y-85067857D01*
X83164286Y-84389286D02*
X83235714Y-84389286D01*
X83307143Y-84425000D01*
X83342857Y-84460714D01*
X83378571Y-84532143D01*
X83414286Y-84675000D01*
X83414286Y-84853571D01*
X83378571Y-84996429D01*
X83342857Y-85067857D01*
X83307143Y-85103571D01*
X83235714Y-85139286D01*
X83164286Y-85139286D01*
X83092857Y-85103571D01*
X83057143Y-85067857D01*
X83021428Y-84996429D01*
X82985714Y-84853571D01*
X82985714Y-84675000D01*
X83021428Y-84532143D01*
X83057143Y-84460714D01*
X83092857Y-84425000D01*
X83164286Y-84389286D01*
X81357286Y-89863286D02*
X80928714Y-89863286D01*
X81143000Y-89863286D02*
X81143000Y-89113286D01*
X81071571Y-89220429D01*
X81000143Y-89291857D01*
X80928714Y-89327571D01*
X89521428Y-84389286D02*
X89521428Y-84996429D01*
X89557143Y-85067857D01*
X89592857Y-85103571D01*
X89664286Y-85139286D01*
X89807143Y-85139286D01*
X89878571Y-85103571D01*
X89914286Y-85067857D01*
X89950000Y-84996429D01*
X89950000Y-84389286D01*
X90664285Y-84389286D02*
X90307142Y-84389286D01*
X90271428Y-84746429D01*
X90307142Y-84710714D01*
X90378571Y-84675000D01*
X90557142Y-84675000D01*
X90628571Y-84710714D01*
X90664285Y-84746429D01*
X90700000Y-84817857D01*
X90700000Y-84996429D01*
X90664285Y-85067857D01*
X90628571Y-85103571D01*
X90557142Y-85139286D01*
X90378571Y-85139286D01*
X90307142Y-85103571D01*
X90271428Y-85067857D01*
X91414286Y-85139286D02*
X90985714Y-85139286D01*
X91200000Y-85139286D02*
X91200000Y-84389286D01*
X91128571Y-84496429D01*
X91057143Y-84567857D01*
X90985714Y-84603571D01*
X89357286Y-89863286D02*
X88928714Y-89863286D01*
X89143000Y-89863286D02*
X89143000Y-89113286D01*
X89071571Y-89220429D01*
X89000143Y-89291857D01*
X88928714Y-89327571D01*
X97521428Y-84389286D02*
X97521428Y-84996429D01*
X97557143Y-85067857D01*
X97592857Y-85103571D01*
X97664286Y-85139286D01*
X97807143Y-85139286D01*
X97878571Y-85103571D01*
X97914286Y-85067857D01*
X97950000Y-84996429D01*
X97950000Y-84389286D01*
X98664285Y-84389286D02*
X98307142Y-84389286D01*
X98271428Y-84746429D01*
X98307142Y-84710714D01*
X98378571Y-84675000D01*
X98557142Y-84675000D01*
X98628571Y-84710714D01*
X98664285Y-84746429D01*
X98700000Y-84817857D01*
X98700000Y-84996429D01*
X98664285Y-85067857D01*
X98628571Y-85103571D01*
X98557142Y-85139286D01*
X98378571Y-85139286D01*
X98307142Y-85103571D01*
X98271428Y-85067857D01*
X98985714Y-84460714D02*
X99021428Y-84425000D01*
X99092857Y-84389286D01*
X99271428Y-84389286D01*
X99342857Y-84425000D01*
X99378571Y-84460714D01*
X99414286Y-84532143D01*
X99414286Y-84603571D01*
X99378571Y-84710714D01*
X98950000Y-85139286D01*
X99414286Y-85139286D01*
X97357286Y-89863286D02*
X96928714Y-89863286D01*
X97143000Y-89863286D02*
X97143000Y-89113286D01*
X97071571Y-89220429D01*
X97000143Y-89291857D01*
X96928714Y-89327571D01*
X105521428Y-84389286D02*
X105521428Y-84996429D01*
X105557143Y-85067857D01*
X105592857Y-85103571D01*
X105664286Y-85139286D01*
X105807143Y-85139286D01*
X105878571Y-85103571D01*
X105914286Y-85067857D01*
X105950000Y-84996429D01*
X105950000Y-84389286D01*
X106664285Y-84389286D02*
X106307142Y-84389286D01*
X106271428Y-84746429D01*
X106307142Y-84710714D01*
X106378571Y-84675000D01*
X106557142Y-84675000D01*
X106628571Y-84710714D01*
X106664285Y-84746429D01*
X106700000Y-84817857D01*
X106700000Y-84996429D01*
X106664285Y-85067857D01*
X106628571Y-85103571D01*
X106557142Y-85139286D01*
X106378571Y-85139286D01*
X106307142Y-85103571D01*
X106271428Y-85067857D01*
X106950000Y-84389286D02*
X107414286Y-84389286D01*
X107164286Y-84675000D01*
X107271428Y-84675000D01*
X107342857Y-84710714D01*
X107378571Y-84746429D01*
X107414286Y-84817857D01*
X107414286Y-84996429D01*
X107378571Y-85067857D01*
X107342857Y-85103571D01*
X107271428Y-85139286D01*
X107057143Y-85139286D01*
X106985714Y-85103571D01*
X106950000Y-85067857D01*
X105357286Y-89863286D02*
X104928714Y-89863286D01*
X105143000Y-89863286D02*
X105143000Y-89113286D01*
X105071571Y-89220429D01*
X105000143Y-89291857D01*
X104928714Y-89327571D01*
X113521428Y-84389286D02*
X113521428Y-84996429D01*
X113557143Y-85067857D01*
X113592857Y-85103571D01*
X113664286Y-85139286D01*
X113807143Y-85139286D01*
X113878571Y-85103571D01*
X113914286Y-85067857D01*
X113950000Y-84996429D01*
X113950000Y-84389286D01*
X114664285Y-84389286D02*
X114307142Y-84389286D01*
X114271428Y-84746429D01*
X114307142Y-84710714D01*
X114378571Y-84675000D01*
X114557142Y-84675000D01*
X114628571Y-84710714D01*
X114664285Y-84746429D01*
X114700000Y-84817857D01*
X114700000Y-84996429D01*
X114664285Y-85067857D01*
X114628571Y-85103571D01*
X114557142Y-85139286D01*
X114378571Y-85139286D01*
X114307142Y-85103571D01*
X114271428Y-85067857D01*
X115342857Y-84639286D02*
X115342857Y-85139286D01*
X115164286Y-84353571D02*
X114985714Y-84889286D01*
X115450000Y-84889286D01*
X113357286Y-89863286D02*
X112928714Y-89863286D01*
X113143000Y-89863286D02*
X113143000Y-89113286D01*
X113071571Y-89220429D01*
X113000143Y-89291857D01*
X112928714Y-89327571D01*
X121521428Y-84389286D02*
X121521428Y-84996429D01*
X121557143Y-85067857D01*
X121592857Y-85103571D01*
X121664286Y-85139286D01*
X121807143Y-85139286D01*
X121878571Y-85103571D01*
X121914286Y-85067857D01*
X121950000Y-84996429D01*
X121950000Y-84389286D01*
X122664285Y-84389286D02*
X122307142Y-84389286D01*
X122271428Y-84746429D01*
X122307142Y-84710714D01*
X122378571Y-84675000D01*
X122557142Y-84675000D01*
X122628571Y-84710714D01*
X122664285Y-84746429D01*
X122700000Y-84817857D01*
X122700000Y-84996429D01*
X122664285Y-85067857D01*
X122628571Y-85103571D01*
X122557142Y-85139286D01*
X122378571Y-85139286D01*
X122307142Y-85103571D01*
X122271428Y-85067857D01*
X123378571Y-84389286D02*
X123021428Y-84389286D01*
X122985714Y-84746429D01*
X123021428Y-84710714D01*
X123092857Y-84675000D01*
X123271428Y-84675000D01*
X123342857Y-84710714D01*
X123378571Y-84746429D01*
X123414286Y-84817857D01*
X123414286Y-84996429D01*
X123378571Y-85067857D01*
X123342857Y-85103571D01*
X123271428Y-85139286D01*
X123092857Y-85139286D01*
X123021428Y-85103571D01*
X122985714Y-85067857D01*
X121357286Y-89863286D02*
X120928714Y-89863286D01*
X121143000Y-89863286D02*
X121143000Y-89113286D01*
X121071571Y-89220429D01*
X121000143Y-89291857D01*
X120928714Y-89327571D01*
X129521428Y-84389286D02*
X129521428Y-84996429D01*
X129557143Y-85067857D01*
X129592857Y-85103571D01*
X129664286Y-85139286D01*
X129807143Y-85139286D01*
X129878571Y-85103571D01*
X129914286Y-85067857D01*
X129950000Y-84996429D01*
X129950000Y-84389286D01*
X130664285Y-84389286D02*
X130307142Y-84389286D01*
X130271428Y-84746429D01*
X130307142Y-84710714D01*
X130378571Y-84675000D01*
X130557142Y-84675000D01*
X130628571Y-84710714D01*
X130664285Y-84746429D01*
X130700000Y-84817857D01*
X130700000Y-84996429D01*
X130664285Y-85067857D01*
X130628571Y-85103571D01*
X130557142Y-85139286D01*
X130378571Y-85139286D01*
X130307142Y-85103571D01*
X130271428Y-85067857D01*
X131342857Y-84389286D02*
X131200000Y-84389286D01*
X131128571Y-84425000D01*
X131092857Y-84460714D01*
X131021428Y-84567857D01*
X130985714Y-84710714D01*
X130985714Y-84996429D01*
X131021428Y-85067857D01*
X131057143Y-85103571D01*
X131128571Y-85139286D01*
X131271428Y-85139286D01*
X131342857Y-85103571D01*
X131378571Y-85067857D01*
X131414286Y-84996429D01*
X131414286Y-84817857D01*
X131378571Y-84746429D01*
X131342857Y-84710714D01*
X131271428Y-84675000D01*
X131128571Y-84675000D01*
X131057143Y-84710714D01*
X131021428Y-84746429D01*
X130985714Y-84817857D01*
X129357286Y-89863286D02*
X128928714Y-89863286D01*
X129143000Y-89863286D02*
X129143000Y-89113286D01*
X129071571Y-89220429D01*
X129000143Y-89291857D01*
X128928714Y-89327571D01*
X137521428Y-84389286D02*
X137521428Y-84996429D01*
X137557143Y-85067857D01*
X137592857Y-85103571D01*
X137664286Y-85139286D01*
X137807143Y-85139286D01*
X137878571Y-85103571D01*
X137914286Y-85067857D01*
X137950000Y-84996429D01*
X137950000Y-84389286D01*
X138664285Y-84389286D02*
X138307142Y-84389286D01*
X138271428Y-84746429D01*
X138307142Y-84710714D01*
X138378571Y-84675000D01*
X138557142Y-84675000D01*
X138628571Y-84710714D01*
X138664285Y-84746429D01*
X138700000Y-84817857D01*
X138700000Y-84996429D01*
X138664285Y-85067857D01*
X138628571Y-85103571D01*
X138557142Y-85139286D01*
X138378571Y-85139286D01*
X138307142Y-85103571D01*
X138271428Y-85067857D01*
X138950000Y-84389286D02*
X139450000Y-84389286D01*
X139128571Y-85139286D01*
X137357286Y-89863286D02*
X136928714Y-89863286D01*
X137143000Y-89863286D02*
X137143000Y-89113286D01*
X137071571Y-89220429D01*
X137000143Y-89291857D01*
X136928714Y-89327571D01*
X145521428Y-84389286D02*
X145521428Y-84996429D01*
X145557143Y-85067857D01*
X145592857Y-85103571D01*
X145664286Y-85139286D01*
X145807143Y-85139286D01*
X145878571Y-85103571D01*
X145914286Y-85067857D01*
X145950000Y-84996429D01*
X145950000Y-84389286D01*
X146664285Y-84389286D02*
X146307142Y-84389286D01*
X146271428Y-84746429D01*
X146307142Y-84710714D01*
X146378571Y-84675000D01*
X146557142Y-84675000D01*
X146628571Y-84710714D01*
X146664285Y-84746429D01*
X146700000Y-84817857D01*
X146700000Y-84996429D01*
X146664285Y-85067857D01*
X146628571Y-85103571D01*
X146557142Y-85139286D01*
X146378571Y-85139286D01*
X146307142Y-85103571D01*
X146271428Y-85067857D01*
X147128571Y-84710714D02*
X147057143Y-84675000D01*
X147021428Y-84639286D01*
X146985714Y-84567857D01*
X146985714Y-84532143D01*
X147021428Y-84460714D01*
X147057143Y-84425000D01*
X147128571Y-84389286D01*
X147271428Y-84389286D01*
X147342857Y-84425000D01*
X147378571Y-84460714D01*
X147414286Y-84532143D01*
X147414286Y-84567857D01*
X147378571Y-84639286D01*
X147342857Y-84675000D01*
X147271428Y-84710714D01*
X147128571Y-84710714D01*
X147057143Y-84746429D01*
X147021428Y-84782143D01*
X146985714Y-84853571D01*
X146985714Y-84996429D01*
X147021428Y-85067857D01*
X147057143Y-85103571D01*
X147128571Y-85139286D01*
X147271428Y-85139286D01*
X147342857Y-85103571D01*
X147378571Y-85067857D01*
X147414286Y-84996429D01*
X147414286Y-84853571D01*
X147378571Y-84782143D01*
X147342857Y-84746429D01*
X147271428Y-84710714D01*
X145357286Y-89863286D02*
X144928714Y-89863286D01*
X145143000Y-89863286D02*
X145143000Y-89113286D01*
X145071571Y-89220429D01*
X145000143Y-89291857D01*
X144928714Y-89327571D01*
X153521428Y-84389286D02*
X153521428Y-84996429D01*
X153557143Y-85067857D01*
X153592857Y-85103571D01*
X153664286Y-85139286D01*
X153807143Y-85139286D01*
X153878571Y-85103571D01*
X153914286Y-85067857D01*
X153950000Y-84996429D01*
X153950000Y-84389286D01*
X154664285Y-84389286D02*
X154307142Y-84389286D01*
X154271428Y-84746429D01*
X154307142Y-84710714D01*
X154378571Y-84675000D01*
X154557142Y-84675000D01*
X154628571Y-84710714D01*
X154664285Y-84746429D01*
X154700000Y-84817857D01*
X154700000Y-84996429D01*
X154664285Y-85067857D01*
X154628571Y-85103571D01*
X154557142Y-85139286D01*
X154378571Y-85139286D01*
X154307142Y-85103571D01*
X154271428Y-85067857D01*
X155057143Y-85139286D02*
X155200000Y-85139286D01*
X155271428Y-85103571D01*
X155307143Y-85067857D01*
X155378571Y-84960714D01*
X155414286Y-84817857D01*
X155414286Y-84532143D01*
X155378571Y-84460714D01*
X155342857Y-84425000D01*
X155271428Y-84389286D01*
X155128571Y-84389286D01*
X155057143Y-84425000D01*
X155021428Y-84460714D01*
X154985714Y-84532143D01*
X154985714Y-84710714D01*
X155021428Y-84782143D01*
X155057143Y-84817857D01*
X155128571Y-84853571D01*
X155271428Y-84853571D01*
X155342857Y-84817857D01*
X155378571Y-84782143D01*
X155414286Y-84710714D01*
X153357286Y-89863286D02*
X152928714Y-89863286D01*
X153143000Y-89863286D02*
X153143000Y-89113286D01*
X153071571Y-89220429D01*
X153000143Y-89291857D01*
X152928714Y-89327571D01*
X161521428Y-84389286D02*
X161521428Y-84996429D01*
X161557143Y-85067857D01*
X161592857Y-85103571D01*
X161664286Y-85139286D01*
X161807143Y-85139286D01*
X161878571Y-85103571D01*
X161914286Y-85067857D01*
X161950000Y-84996429D01*
X161950000Y-84389286D01*
X162628571Y-84389286D02*
X162485714Y-84389286D01*
X162414285Y-84425000D01*
X162378571Y-84460714D01*
X162307142Y-84567857D01*
X162271428Y-84710714D01*
X162271428Y-84996429D01*
X162307142Y-85067857D01*
X162342857Y-85103571D01*
X162414285Y-85139286D01*
X162557142Y-85139286D01*
X162628571Y-85103571D01*
X162664285Y-85067857D01*
X162700000Y-84996429D01*
X162700000Y-84817857D01*
X162664285Y-84746429D01*
X162628571Y-84710714D01*
X162557142Y-84675000D01*
X162414285Y-84675000D01*
X162342857Y-84710714D01*
X162307142Y-84746429D01*
X162271428Y-84817857D01*
X163164286Y-84389286D02*
X163235714Y-84389286D01*
X163307143Y-84425000D01*
X163342857Y-84460714D01*
X163378571Y-84532143D01*
X163414286Y-84675000D01*
X163414286Y-84853571D01*
X163378571Y-84996429D01*
X163342857Y-85067857D01*
X163307143Y-85103571D01*
X163235714Y-85139286D01*
X163164286Y-85139286D01*
X163092857Y-85103571D01*
X163057143Y-85067857D01*
X163021428Y-84996429D01*
X162985714Y-84853571D01*
X162985714Y-84675000D01*
X163021428Y-84532143D01*
X163057143Y-84460714D01*
X163092857Y-84425000D01*
X163164286Y-84389286D01*
X161357286Y-89863286D02*
X160928714Y-89863286D01*
X161143000Y-89863286D02*
X161143000Y-89113286D01*
X161071571Y-89220429D01*
X161000143Y-89291857D01*
X160928714Y-89327571D01*
X68621428Y-98789286D02*
X68621428Y-99396429D01*
X68657143Y-99467857D01*
X68692857Y-99503571D01*
X68764286Y-99539286D01*
X68907143Y-99539286D01*
X68978571Y-99503571D01*
X69014286Y-99467857D01*
X69050000Y-99396429D01*
X69050000Y-98789286D01*
X69728571Y-98789286D02*
X69585714Y-98789286D01*
X69514285Y-98825000D01*
X69478571Y-98860714D01*
X69407142Y-98967857D01*
X69371428Y-99110714D01*
X69371428Y-99396429D01*
X69407142Y-99467857D01*
X69442857Y-99503571D01*
X69514285Y-99539286D01*
X69657142Y-99539286D01*
X69728571Y-99503571D01*
X69764285Y-99467857D01*
X69800000Y-99396429D01*
X69800000Y-99217857D01*
X69764285Y-99146429D01*
X69728571Y-99110714D01*
X69657142Y-99075000D01*
X69514285Y-99075000D01*
X69442857Y-99110714D01*
X69407142Y-99146429D01*
X69371428Y-99217857D01*
X70514286Y-99539286D02*
X70085714Y-99539286D01*
X70300000Y-99539286D02*
X70300000Y-98789286D01*
X70228571Y-98896429D01*
X70157143Y-98967857D01*
X70085714Y-99003571D01*
X71071286Y-94815286D02*
X70642714Y-94815286D01*
X70857000Y-94815286D02*
X70857000Y-94065286D01*
X70785571Y-94172429D01*
X70714143Y-94243857D01*
X70642714Y-94279571D01*
X76621428Y-98789286D02*
X76621428Y-99396429D01*
X76657143Y-99467857D01*
X76692857Y-99503571D01*
X76764286Y-99539286D01*
X76907143Y-99539286D01*
X76978571Y-99503571D01*
X77014286Y-99467857D01*
X77050000Y-99396429D01*
X77050000Y-98789286D01*
X77728571Y-98789286D02*
X77585714Y-98789286D01*
X77514285Y-98825000D01*
X77478571Y-98860714D01*
X77407142Y-98967857D01*
X77371428Y-99110714D01*
X77371428Y-99396429D01*
X77407142Y-99467857D01*
X77442857Y-99503571D01*
X77514285Y-99539286D01*
X77657142Y-99539286D01*
X77728571Y-99503571D01*
X77764285Y-99467857D01*
X77800000Y-99396429D01*
X77800000Y-99217857D01*
X77764285Y-99146429D01*
X77728571Y-99110714D01*
X77657142Y-99075000D01*
X77514285Y-99075000D01*
X77442857Y-99110714D01*
X77407142Y-99146429D01*
X77371428Y-99217857D01*
X78085714Y-98860714D02*
X78121428Y-98825000D01*
X78192857Y-98789286D01*
X78371428Y-98789286D01*
X78442857Y-98825000D01*
X78478571Y-98860714D01*
X78514286Y-98932143D01*
X78514286Y-99003571D01*
X78478571Y-99110714D01*
X78050000Y-99539286D01*
X78514286Y-99539286D01*
X79071286Y-94815286D02*
X78642714Y-94815286D01*
X78857000Y-94815286D02*
X78857000Y-94065286D01*
X78785571Y-94172429D01*
X78714143Y-94243857D01*
X78642714Y-94279571D01*
X84621428Y-98789286D02*
X84621428Y-99396429D01*
X84657143Y-99467857D01*
X84692857Y-99503571D01*
X84764286Y-99539286D01*
X84907143Y-99539286D01*
X84978571Y-99503571D01*
X85014286Y-99467857D01*
X85050000Y-99396429D01*
X85050000Y-98789286D01*
X85728571Y-98789286D02*
X85585714Y-98789286D01*
X85514285Y-98825000D01*
X85478571Y-98860714D01*
X85407142Y-98967857D01*
X85371428Y-99110714D01*
X85371428Y-99396429D01*
X85407142Y-99467857D01*
X85442857Y-99503571D01*
X85514285Y-99539286D01*
X85657142Y-99539286D01*
X85728571Y-99503571D01*
X85764285Y-99467857D01*
X85800000Y-99396429D01*
X85800000Y-99217857D01*
X85764285Y-99146429D01*
X85728571Y-99110714D01*
X85657142Y-99075000D01*
X85514285Y-99075000D01*
X85442857Y-99110714D01*
X85407142Y-99146429D01*
X85371428Y-99217857D01*
X86050000Y-98789286D02*
X86514286Y-98789286D01*
X86264286Y-99075000D01*
X86371428Y-99075000D01*
X86442857Y-99110714D01*
X86478571Y-99146429D01*
X86514286Y-99217857D01*
X86514286Y-99396429D01*
X86478571Y-99467857D01*
X86442857Y-99503571D01*
X86371428Y-99539286D01*
X86157143Y-99539286D01*
X86085714Y-99503571D01*
X86050000Y-99467857D01*
X87071286Y-94815286D02*
X86642714Y-94815286D01*
X86857000Y-94815286D02*
X86857000Y-94065286D01*
X86785571Y-94172429D01*
X86714143Y-94243857D01*
X86642714Y-94279571D01*
X92621428Y-98789286D02*
X92621428Y-99396429D01*
X92657143Y-99467857D01*
X92692857Y-99503571D01*
X92764286Y-99539286D01*
X92907143Y-99539286D01*
X92978571Y-99503571D01*
X93014286Y-99467857D01*
X93050000Y-99396429D01*
X93050000Y-98789286D01*
X93728571Y-98789286D02*
X93585714Y-98789286D01*
X93514285Y-98825000D01*
X93478571Y-98860714D01*
X93407142Y-98967857D01*
X93371428Y-99110714D01*
X93371428Y-99396429D01*
X93407142Y-99467857D01*
X93442857Y-99503571D01*
X93514285Y-99539286D01*
X93657142Y-99539286D01*
X93728571Y-99503571D01*
X93764285Y-99467857D01*
X93800000Y-99396429D01*
X93800000Y-99217857D01*
X93764285Y-99146429D01*
X93728571Y-99110714D01*
X93657142Y-99075000D01*
X93514285Y-99075000D01*
X93442857Y-99110714D01*
X93407142Y-99146429D01*
X93371428Y-99217857D01*
X94442857Y-99039286D02*
X94442857Y-99539286D01*
X94264286Y-98753571D02*
X94085714Y-99289286D01*
X94550000Y-99289286D01*
X95071286Y-94815286D02*
X94642714Y-94815286D01*
X94857000Y-94815286D02*
X94857000Y-94065286D01*
X94785571Y-94172429D01*
X94714143Y-94243857D01*
X94642714Y-94279571D01*
X100621428Y-98789286D02*
X100621428Y-99396429D01*
X100657143Y-99467857D01*
X100692857Y-99503571D01*
X100764286Y-99539286D01*
X100907143Y-99539286D01*
X100978571Y-99503571D01*
X101014286Y-99467857D01*
X101050000Y-99396429D01*
X101050000Y-98789286D01*
X101728571Y-98789286D02*
X101585714Y-98789286D01*
X101514285Y-98825000D01*
X101478571Y-98860714D01*
X101407142Y-98967857D01*
X101371428Y-99110714D01*
X101371428Y-99396429D01*
X101407142Y-99467857D01*
X101442857Y-99503571D01*
X101514285Y-99539286D01*
X101657142Y-99539286D01*
X101728571Y-99503571D01*
X101764285Y-99467857D01*
X101800000Y-99396429D01*
X101800000Y-99217857D01*
X101764285Y-99146429D01*
X101728571Y-99110714D01*
X101657142Y-99075000D01*
X101514285Y-99075000D01*
X101442857Y-99110714D01*
X101407142Y-99146429D01*
X101371428Y-99217857D01*
X102478571Y-98789286D02*
X102121428Y-98789286D01*
X102085714Y-99146429D01*
X102121428Y-99110714D01*
X102192857Y-99075000D01*
X102371428Y-99075000D01*
X102442857Y-99110714D01*
X102478571Y-99146429D01*
X102514286Y-99217857D01*
X102514286Y-99396429D01*
X102478571Y-99467857D01*
X102442857Y-99503571D01*
X102371428Y-99539286D01*
X102192857Y-99539286D01*
X102121428Y-99503571D01*
X102085714Y-99467857D01*
X103071286Y-94815286D02*
X102642714Y-94815286D01*
X102857000Y-94815286D02*
X102857000Y-94065286D01*
X102785571Y-94172429D01*
X102714143Y-94243857D01*
X102642714Y-94279571D01*
X108621428Y-98789286D02*
X108621428Y-99396429D01*
X108657143Y-99467857D01*
X108692857Y-99503571D01*
X108764286Y-99539286D01*
X108907143Y-99539286D01*
X108978571Y-99503571D01*
X109014286Y-99467857D01*
X109050000Y-99396429D01*
X109050000Y-98789286D01*
X109728571Y-98789286D02*
X109585714Y-98789286D01*
X109514285Y-98825000D01*
X109478571Y-98860714D01*
X109407142Y-98967857D01*
X109371428Y-99110714D01*
X109371428Y-99396429D01*
X109407142Y-99467857D01*
X109442857Y-99503571D01*
X109514285Y-99539286D01*
X109657142Y-99539286D01*
X109728571Y-99503571D01*
X109764285Y-99467857D01*
X109800000Y-99396429D01*
X109800000Y-99217857D01*
X109764285Y-99146429D01*
X109728571Y-99110714D01*
X109657142Y-99075000D01*
X109514285Y-99075000D01*
X109442857Y-99110714D01*
X109407142Y-99146429D01*
X109371428Y-99217857D01*
X110442857Y-98789286D02*
X110300000Y-98789286D01*
X110228571Y-98825000D01*
X110192857Y-98860714D01*
X110121428Y-98967857D01*
X110085714Y-99110714D01*
X110085714Y-99396429D01*
X110121428Y-99467857D01*
X110157143Y-99503571D01*
X110228571Y-99539286D01*
X110371428Y-99539286D01*
X110442857Y-99503571D01*
X110478571Y-99467857D01*
X110514286Y-99396429D01*
X110514286Y-99217857D01*
X110478571Y-99146429D01*
X110442857Y-99110714D01*
X110371428Y-99075000D01*
X110228571Y-99075000D01*
X110157143Y-99110714D01*
X110121428Y-99146429D01*
X110085714Y-99217857D01*
X111071286Y-94815286D02*
X110642714Y-94815286D01*
X110857000Y-94815286D02*
X110857000Y-94065286D01*
X110785571Y-94172429D01*
X110714143Y-94243857D01*
X110642714Y-94279571D01*
X116621428Y-98789286D02*
X116621428Y-99396429D01*
X116657143Y-99467857D01*
X116692857Y-99503571D01*
X116764286Y-99539286D01*
X116907143Y-99539286D01*
X116978571Y-99503571D01*
X117014286Y-99467857D01*
X117050000Y-99396429D01*
X117050000Y-98789286D01*
X117728571Y-98789286D02*
X117585714Y-98789286D01*
X117514285Y-98825000D01*
X117478571Y-98860714D01*
X117407142Y-98967857D01*
X117371428Y-99110714D01*
X117371428Y-99396429D01*
X117407142Y-99467857D01*
X117442857Y-99503571D01*
X117514285Y-99539286D01*
X117657142Y-99539286D01*
X117728571Y-99503571D01*
X117764285Y-99467857D01*
X117800000Y-99396429D01*
X117800000Y-99217857D01*
X117764285Y-99146429D01*
X117728571Y-99110714D01*
X117657142Y-99075000D01*
X117514285Y-99075000D01*
X117442857Y-99110714D01*
X117407142Y-99146429D01*
X117371428Y-99217857D01*
X118050000Y-98789286D02*
X118550000Y-98789286D01*
X118228571Y-99539286D01*
X119071286Y-94815286D02*
X118642714Y-94815286D01*
X118857000Y-94815286D02*
X118857000Y-94065286D01*
X118785571Y-94172429D01*
X118714143Y-94243857D01*
X118642714Y-94279571D01*
X124621428Y-98789286D02*
X124621428Y-99396429D01*
X124657143Y-99467857D01*
X124692857Y-99503571D01*
X124764286Y-99539286D01*
X124907143Y-99539286D01*
X124978571Y-99503571D01*
X125014286Y-99467857D01*
X125050000Y-99396429D01*
X125050000Y-98789286D01*
X125728571Y-98789286D02*
X125585714Y-98789286D01*
X125514285Y-98825000D01*
X125478571Y-98860714D01*
X125407142Y-98967857D01*
X125371428Y-99110714D01*
X125371428Y-99396429D01*
X125407142Y-99467857D01*
X125442857Y-99503571D01*
X125514285Y-99539286D01*
X125657142Y-99539286D01*
X125728571Y-99503571D01*
X125764285Y-99467857D01*
X125800000Y-99396429D01*
X125800000Y-99217857D01*
X125764285Y-99146429D01*
X125728571Y-99110714D01*
X125657142Y-99075000D01*
X125514285Y-99075000D01*
X125442857Y-99110714D01*
X125407142Y-99146429D01*
X125371428Y-99217857D01*
X126228571Y-99110714D02*
X126157143Y-99075000D01*
X126121428Y-99039286D01*
X126085714Y-98967857D01*
X126085714Y-98932143D01*
X126121428Y-98860714D01*
X126157143Y-98825000D01*
X126228571Y-98789286D01*
X126371428Y-98789286D01*
X126442857Y-98825000D01*
X126478571Y-98860714D01*
X126514286Y-98932143D01*
X126514286Y-98967857D01*
X126478571Y-99039286D01*
X126442857Y-99075000D01*
X126371428Y-99110714D01*
X126228571Y-99110714D01*
X126157143Y-99146429D01*
X126121428Y-99182143D01*
X126085714Y-99253571D01*
X126085714Y-99396429D01*
X126121428Y-99467857D01*
X126157143Y-99503571D01*
X126228571Y-99539286D01*
X126371428Y-99539286D01*
X126442857Y-99503571D01*
X126478571Y-99467857D01*
X126514286Y-99396429D01*
X126514286Y-99253571D01*
X126478571Y-99182143D01*
X126442857Y-99146429D01*
X126371428Y-99110714D01*
X127071286Y-94815286D02*
X126642714Y-94815286D01*
X126857000Y-94815286D02*
X126857000Y-94065286D01*
X126785571Y-94172429D01*
X126714143Y-94243857D01*
X126642714Y-94279571D01*
X132621428Y-98789286D02*
X132621428Y-99396429D01*
X132657143Y-99467857D01*
X132692857Y-99503571D01*
X132764286Y-99539286D01*
X132907143Y-99539286D01*
X132978571Y-99503571D01*
X133014286Y-99467857D01*
X133050000Y-99396429D01*
X133050000Y-98789286D01*
X133728571Y-98789286D02*
X133585714Y-98789286D01*
X133514285Y-98825000D01*
X133478571Y-98860714D01*
X133407142Y-98967857D01*
X133371428Y-99110714D01*
X133371428Y-99396429D01*
X133407142Y-99467857D01*
X133442857Y-99503571D01*
X133514285Y-99539286D01*
X133657142Y-99539286D01*
X133728571Y-99503571D01*
X133764285Y-99467857D01*
X133800000Y-99396429D01*
X133800000Y-99217857D01*
X133764285Y-99146429D01*
X133728571Y-99110714D01*
X133657142Y-99075000D01*
X133514285Y-99075000D01*
X133442857Y-99110714D01*
X133407142Y-99146429D01*
X133371428Y-99217857D01*
X134157143Y-99539286D02*
X134300000Y-99539286D01*
X134371428Y-99503571D01*
X134407143Y-99467857D01*
X134478571Y-99360714D01*
X134514286Y-99217857D01*
X134514286Y-98932143D01*
X134478571Y-98860714D01*
X134442857Y-98825000D01*
X134371428Y-98789286D01*
X134228571Y-98789286D01*
X134157143Y-98825000D01*
X134121428Y-98860714D01*
X134085714Y-98932143D01*
X134085714Y-99110714D01*
X134121428Y-99182143D01*
X134157143Y-99217857D01*
X134228571Y-99253571D01*
X134371428Y-99253571D01*
X134442857Y-99217857D01*
X134478571Y-99182143D01*
X134514286Y-99110714D01*
X135071286Y-94815286D02*
X134642714Y-94815286D01*
X134857000Y-94815286D02*
X134857000Y-94065286D01*
X134785571Y-94172429D01*
X134714143Y-94243857D01*
X134642714Y-94279571D01*
X140621428Y-98789286D02*
X140621428Y-99396429D01*
X140657143Y-99467857D01*
X140692857Y-99503571D01*
X140764286Y-99539286D01*
X140907143Y-99539286D01*
X140978571Y-99503571D01*
X141014286Y-99467857D01*
X141050000Y-99396429D01*
X141050000Y-98789286D01*
X141335714Y-98789286D02*
X141835714Y-98789286D01*
X141514285Y-99539286D01*
X142264286Y-98789286D02*
X142335714Y-98789286D01*
X142407143Y-98825000D01*
X142442857Y-98860714D01*
X142478571Y-98932143D01*
X142514286Y-99075000D01*
X142514286Y-99253571D01*
X142478571Y-99396429D01*
X142442857Y-99467857D01*
X142407143Y-99503571D01*
X142335714Y-99539286D01*
X142264286Y-99539286D01*
X142192857Y-99503571D01*
X142157143Y-99467857D01*
X142121428Y-99396429D01*
X142085714Y-99253571D01*
X142085714Y-99075000D01*
X142121428Y-98932143D01*
X142157143Y-98860714D01*
X142192857Y-98825000D01*
X142264286Y-98789286D01*
X143071286Y-94815286D02*
X142642714Y-94815286D01*
X142857000Y-94815286D02*
X142857000Y-94065286D01*
X142785571Y-94172429D01*
X142714143Y-94243857D01*
X142642714Y-94279571D01*
X148621428Y-98789286D02*
X148621428Y-99396429D01*
X148657143Y-99467857D01*
X148692857Y-99503571D01*
X148764286Y-99539286D01*
X148907143Y-99539286D01*
X148978571Y-99503571D01*
X149014286Y-99467857D01*
X149050000Y-99396429D01*
X149050000Y-98789286D01*
X149335714Y-98789286D02*
X149835714Y-98789286D01*
X149514285Y-99539286D01*
X150514286Y-99539286D02*
X150085714Y-99539286D01*
X150300000Y-99539286D02*
X150300000Y-98789286D01*
X150228571Y-98896429D01*
X150157143Y-98967857D01*
X150085714Y-99003571D01*
X151071286Y-94815286D02*
X150642714Y-94815286D01*
X150857000Y-94815286D02*
X150857000Y-94065286D01*
X150785571Y-94172429D01*
X150714143Y-94243857D01*
X150642714Y-94279571D01*
X156621428Y-98789286D02*
X156621428Y-99396429D01*
X156657143Y-99467857D01*
X156692857Y-99503571D01*
X156764286Y-99539286D01*
X156907143Y-99539286D01*
X156978571Y-99503571D01*
X157014286Y-99467857D01*
X157050000Y-99396429D01*
X157050000Y-98789286D01*
X157335714Y-98789286D02*
X157835714Y-98789286D01*
X157514285Y-99539286D01*
X158085714Y-98860714D02*
X158121428Y-98825000D01*
X158192857Y-98789286D01*
X158371428Y-98789286D01*
X158442857Y-98825000D01*
X158478571Y-98860714D01*
X158514286Y-98932143D01*
X158514286Y-99003571D01*
X158478571Y-99110714D01*
X158050000Y-99539286D01*
X158514286Y-99539286D01*
X159071286Y-94815286D02*
X158642714Y-94815286D01*
X158857000Y-94815286D02*
X158857000Y-94065286D01*
X158785571Y-94172429D01*
X158714143Y-94243857D01*
X158642714Y-94279571D01*
X73521428Y-100389286D02*
X73521428Y-100996429D01*
X73557143Y-101067857D01*
X73592857Y-101103571D01*
X73664286Y-101139286D01*
X73807143Y-101139286D01*
X73878571Y-101103571D01*
X73914286Y-101067857D01*
X73950000Y-100996429D01*
X73950000Y-100389286D01*
X74235714Y-100389286D02*
X74735714Y-100389286D01*
X74414285Y-101139286D01*
X74950000Y-100389286D02*
X75414286Y-100389286D01*
X75164286Y-100675000D01*
X75271428Y-100675000D01*
X75342857Y-100710714D01*
X75378571Y-100746429D01*
X75414286Y-100817857D01*
X75414286Y-100996429D01*
X75378571Y-101067857D01*
X75342857Y-101103571D01*
X75271428Y-101139286D01*
X75057143Y-101139286D01*
X74985714Y-101103571D01*
X74950000Y-101067857D01*
X73357286Y-105863286D02*
X72928714Y-105863286D01*
X73143000Y-105863286D02*
X73143000Y-105113286D01*
X73071571Y-105220429D01*
X73000143Y-105291857D01*
X72928714Y-105327571D01*
X81521428Y-100389286D02*
X81521428Y-100996429D01*
X81557143Y-101067857D01*
X81592857Y-101103571D01*
X81664286Y-101139286D01*
X81807143Y-101139286D01*
X81878571Y-101103571D01*
X81914286Y-101067857D01*
X81950000Y-100996429D01*
X81950000Y-100389286D01*
X82235714Y-100389286D02*
X82735714Y-100389286D01*
X82414285Y-101139286D01*
X83342857Y-100639286D02*
X83342857Y-101139286D01*
X83164286Y-100353571D02*
X82985714Y-100889286D01*
X83450000Y-100889286D01*
X81357286Y-105863286D02*
X80928714Y-105863286D01*
X81143000Y-105863286D02*
X81143000Y-105113286D01*
X81071571Y-105220429D01*
X81000143Y-105291857D01*
X80928714Y-105327571D01*
X89521428Y-100389286D02*
X89521428Y-100996429D01*
X89557143Y-101067857D01*
X89592857Y-101103571D01*
X89664286Y-101139286D01*
X89807143Y-101139286D01*
X89878571Y-101103571D01*
X89914286Y-101067857D01*
X89950000Y-100996429D01*
X89950000Y-100389286D01*
X90235714Y-100389286D02*
X90735714Y-100389286D01*
X90414285Y-101139286D01*
X91378571Y-100389286D02*
X91021428Y-100389286D01*
X90985714Y-100746429D01*
X91021428Y-100710714D01*
X91092857Y-100675000D01*
X91271428Y-100675000D01*
X91342857Y-100710714D01*
X91378571Y-100746429D01*
X91414286Y-100817857D01*
X91414286Y-100996429D01*
X91378571Y-101067857D01*
X91342857Y-101103571D01*
X91271428Y-101139286D01*
X91092857Y-101139286D01*
X91021428Y-101103571D01*
X90985714Y-101067857D01*
X89357286Y-105863286D02*
X88928714Y-105863286D01*
X89143000Y-105863286D02*
X89143000Y-105113286D01*
X89071571Y-105220429D01*
X89000143Y-105291857D01*
X88928714Y-105327571D01*
X97521428Y-100389286D02*
X97521428Y-100996429D01*
X97557143Y-101067857D01*
X97592857Y-101103571D01*
X97664286Y-101139286D01*
X97807143Y-101139286D01*
X97878571Y-101103571D01*
X97914286Y-101067857D01*
X97950000Y-100996429D01*
X97950000Y-100389286D01*
X98235714Y-100389286D02*
X98735714Y-100389286D01*
X98414285Y-101139286D01*
X99342857Y-100389286D02*
X99200000Y-100389286D01*
X99128571Y-100425000D01*
X99092857Y-100460714D01*
X99021428Y-100567857D01*
X98985714Y-100710714D01*
X98985714Y-100996429D01*
X99021428Y-101067857D01*
X99057143Y-101103571D01*
X99128571Y-101139286D01*
X99271428Y-101139286D01*
X99342857Y-101103571D01*
X99378571Y-101067857D01*
X99414286Y-100996429D01*
X99414286Y-100817857D01*
X99378571Y-100746429D01*
X99342857Y-100710714D01*
X99271428Y-100675000D01*
X99128571Y-100675000D01*
X99057143Y-100710714D01*
X99021428Y-100746429D01*
X98985714Y-100817857D01*
X97357286Y-105863286D02*
X96928714Y-105863286D01*
X97143000Y-105863286D02*
X97143000Y-105113286D01*
X97071571Y-105220429D01*
X97000143Y-105291857D01*
X96928714Y-105327571D01*
X105521428Y-100389286D02*
X105521428Y-100996429D01*
X105557143Y-101067857D01*
X105592857Y-101103571D01*
X105664286Y-101139286D01*
X105807143Y-101139286D01*
X105878571Y-101103571D01*
X105914286Y-101067857D01*
X105950000Y-100996429D01*
X105950000Y-100389286D01*
X106235714Y-100389286D02*
X106735714Y-100389286D01*
X106414285Y-101139286D01*
X106950000Y-100389286D02*
X107450000Y-100389286D01*
X107128571Y-101139286D01*
X105357286Y-105863286D02*
X104928714Y-105863286D01*
X105143000Y-105863286D02*
X105143000Y-105113286D01*
X105071571Y-105220429D01*
X105000143Y-105291857D01*
X104928714Y-105327571D01*
X113521428Y-100389286D02*
X113521428Y-100996429D01*
X113557143Y-101067857D01*
X113592857Y-101103571D01*
X113664286Y-101139286D01*
X113807143Y-101139286D01*
X113878571Y-101103571D01*
X113914286Y-101067857D01*
X113950000Y-100996429D01*
X113950000Y-100389286D01*
X114235714Y-100389286D02*
X114735714Y-100389286D01*
X114414285Y-101139286D01*
X115128571Y-100710714D02*
X115057143Y-100675000D01*
X115021428Y-100639286D01*
X114985714Y-100567857D01*
X114985714Y-100532143D01*
X115021428Y-100460714D01*
X115057143Y-100425000D01*
X115128571Y-100389286D01*
X115271428Y-100389286D01*
X115342857Y-100425000D01*
X115378571Y-100460714D01*
X115414286Y-100532143D01*
X115414286Y-100567857D01*
X115378571Y-100639286D01*
X115342857Y-100675000D01*
X115271428Y-100710714D01*
X115128571Y-100710714D01*
X115057143Y-100746429D01*
X115021428Y-100782143D01*
X114985714Y-100853571D01*
X114985714Y-100996429D01*
X115021428Y-101067857D01*
X115057143Y-101103571D01*
X115128571Y-101139286D01*
X115271428Y-101139286D01*
X115342857Y-101103571D01*
X115378571Y-101067857D01*
X115414286Y-100996429D01*
X115414286Y-100853571D01*
X115378571Y-100782143D01*
X115342857Y-100746429D01*
X115271428Y-100710714D01*
X113357286Y-105863286D02*
X112928714Y-105863286D01*
X113143000Y-105863286D02*
X113143000Y-105113286D01*
X113071571Y-105220429D01*
X113000143Y-105291857D01*
X112928714Y-105327571D01*
X121521428Y-100389286D02*
X121521428Y-100996429D01*
X121557143Y-101067857D01*
X121592857Y-101103571D01*
X121664286Y-101139286D01*
X121807143Y-101139286D01*
X121878571Y-101103571D01*
X121914286Y-101067857D01*
X121950000Y-100996429D01*
X121950000Y-100389286D01*
X122235714Y-100389286D02*
X122735714Y-100389286D01*
X122414285Y-101139286D01*
X123057143Y-101139286D02*
X123200000Y-101139286D01*
X123271428Y-101103571D01*
X123307143Y-101067857D01*
X123378571Y-100960714D01*
X123414286Y-100817857D01*
X123414286Y-100532143D01*
X123378571Y-100460714D01*
X123342857Y-100425000D01*
X123271428Y-100389286D01*
X123128571Y-100389286D01*
X123057143Y-100425000D01*
X123021428Y-100460714D01*
X122985714Y-100532143D01*
X122985714Y-100710714D01*
X123021428Y-100782143D01*
X123057143Y-100817857D01*
X123128571Y-100853571D01*
X123271428Y-100853571D01*
X123342857Y-100817857D01*
X123378571Y-100782143D01*
X123414286Y-100710714D01*
X121357286Y-105863286D02*
X120928714Y-105863286D01*
X121143000Y-105863286D02*
X121143000Y-105113286D01*
X121071571Y-105220429D01*
X121000143Y-105291857D01*
X120928714Y-105327571D01*
X129521428Y-100389286D02*
X129521428Y-100996429D01*
X129557143Y-101067857D01*
X129592857Y-101103571D01*
X129664286Y-101139286D01*
X129807143Y-101139286D01*
X129878571Y-101103571D01*
X129914286Y-101067857D01*
X129950000Y-100996429D01*
X129950000Y-100389286D01*
X130414285Y-100710714D02*
X130342857Y-100675000D01*
X130307142Y-100639286D01*
X130271428Y-100567857D01*
X130271428Y-100532143D01*
X130307142Y-100460714D01*
X130342857Y-100425000D01*
X130414285Y-100389286D01*
X130557142Y-100389286D01*
X130628571Y-100425000D01*
X130664285Y-100460714D01*
X130700000Y-100532143D01*
X130700000Y-100567857D01*
X130664285Y-100639286D01*
X130628571Y-100675000D01*
X130557142Y-100710714D01*
X130414285Y-100710714D01*
X130342857Y-100746429D01*
X130307142Y-100782143D01*
X130271428Y-100853571D01*
X130271428Y-100996429D01*
X130307142Y-101067857D01*
X130342857Y-101103571D01*
X130414285Y-101139286D01*
X130557142Y-101139286D01*
X130628571Y-101103571D01*
X130664285Y-101067857D01*
X130700000Y-100996429D01*
X130700000Y-100853571D01*
X130664285Y-100782143D01*
X130628571Y-100746429D01*
X130557142Y-100710714D01*
X131164286Y-100389286D02*
X131235714Y-100389286D01*
X131307143Y-100425000D01*
X131342857Y-100460714D01*
X131378571Y-100532143D01*
X131414286Y-100675000D01*
X131414286Y-100853571D01*
X131378571Y-100996429D01*
X131342857Y-101067857D01*
X131307143Y-101103571D01*
X131235714Y-101139286D01*
X131164286Y-101139286D01*
X131092857Y-101103571D01*
X131057143Y-101067857D01*
X131021428Y-100996429D01*
X130985714Y-100853571D01*
X130985714Y-100675000D01*
X131021428Y-100532143D01*
X131057143Y-100460714D01*
X131092857Y-100425000D01*
X131164286Y-100389286D01*
X129357286Y-105863286D02*
X128928714Y-105863286D01*
X129143000Y-105863286D02*
X129143000Y-105113286D01*
X129071571Y-105220429D01*
X129000143Y-105291857D01*
X128928714Y-105327571D01*
X137521428Y-100389286D02*
X137521428Y-100996429D01*
X137557143Y-101067857D01*
X137592857Y-101103571D01*
X137664286Y-101139286D01*
X137807143Y-101139286D01*
X137878571Y-101103571D01*
X137914286Y-101067857D01*
X137950000Y-100996429D01*
X137950000Y-100389286D01*
X138414285Y-100710714D02*
X138342857Y-100675000D01*
X138307142Y-100639286D01*
X138271428Y-100567857D01*
X138271428Y-100532143D01*
X138307142Y-100460714D01*
X138342857Y-100425000D01*
X138414285Y-100389286D01*
X138557142Y-100389286D01*
X138628571Y-100425000D01*
X138664285Y-100460714D01*
X138700000Y-100532143D01*
X138700000Y-100567857D01*
X138664285Y-100639286D01*
X138628571Y-100675000D01*
X138557142Y-100710714D01*
X138414285Y-100710714D01*
X138342857Y-100746429D01*
X138307142Y-100782143D01*
X138271428Y-100853571D01*
X138271428Y-100996429D01*
X138307142Y-101067857D01*
X138342857Y-101103571D01*
X138414285Y-101139286D01*
X138557142Y-101139286D01*
X138628571Y-101103571D01*
X138664285Y-101067857D01*
X138700000Y-100996429D01*
X138700000Y-100853571D01*
X138664285Y-100782143D01*
X138628571Y-100746429D01*
X138557142Y-100710714D01*
X139414286Y-101139286D02*
X138985714Y-101139286D01*
X139200000Y-101139286D02*
X139200000Y-100389286D01*
X139128571Y-100496429D01*
X139057143Y-100567857D01*
X138985714Y-100603571D01*
X137357286Y-105863286D02*
X136928714Y-105863286D01*
X137143000Y-105863286D02*
X137143000Y-105113286D01*
X137071571Y-105220429D01*
X137000143Y-105291857D01*
X136928714Y-105327571D01*
X145521428Y-100389286D02*
X145521428Y-100996429D01*
X145557143Y-101067857D01*
X145592857Y-101103571D01*
X145664286Y-101139286D01*
X145807143Y-101139286D01*
X145878571Y-101103571D01*
X145914286Y-101067857D01*
X145950000Y-100996429D01*
X145950000Y-100389286D01*
X146414285Y-100710714D02*
X146342857Y-100675000D01*
X146307142Y-100639286D01*
X146271428Y-100567857D01*
X146271428Y-100532143D01*
X146307142Y-100460714D01*
X146342857Y-100425000D01*
X146414285Y-100389286D01*
X146557142Y-100389286D01*
X146628571Y-100425000D01*
X146664285Y-100460714D01*
X146700000Y-100532143D01*
X146700000Y-100567857D01*
X146664285Y-100639286D01*
X146628571Y-100675000D01*
X146557142Y-100710714D01*
X146414285Y-100710714D01*
X146342857Y-100746429D01*
X146307142Y-100782143D01*
X146271428Y-100853571D01*
X146271428Y-100996429D01*
X146307142Y-101067857D01*
X146342857Y-101103571D01*
X146414285Y-101139286D01*
X146557142Y-101139286D01*
X146628571Y-101103571D01*
X146664285Y-101067857D01*
X146700000Y-100996429D01*
X146700000Y-100853571D01*
X146664285Y-100782143D01*
X146628571Y-100746429D01*
X146557142Y-100710714D01*
X146985714Y-100460714D02*
X147021428Y-100425000D01*
X147092857Y-100389286D01*
X147271428Y-100389286D01*
X147342857Y-100425000D01*
X147378571Y-100460714D01*
X147414286Y-100532143D01*
X147414286Y-100603571D01*
X147378571Y-100710714D01*
X146950000Y-101139286D01*
X147414286Y-101139286D01*
X145357286Y-105863286D02*
X144928714Y-105863286D01*
X145143000Y-105863286D02*
X145143000Y-105113286D01*
X145071571Y-105220429D01*
X145000143Y-105291857D01*
X144928714Y-105327571D01*
X153521428Y-100389286D02*
X153521428Y-100996429D01*
X153557143Y-101067857D01*
X153592857Y-101103571D01*
X153664286Y-101139286D01*
X153807143Y-101139286D01*
X153878571Y-101103571D01*
X153914286Y-101067857D01*
X153950000Y-100996429D01*
X153950000Y-100389286D01*
X154414285Y-100710714D02*
X154342857Y-100675000D01*
X154307142Y-100639286D01*
X154271428Y-100567857D01*
X154271428Y-100532143D01*
X154307142Y-100460714D01*
X154342857Y-100425000D01*
X154414285Y-100389286D01*
X154557142Y-100389286D01*
X154628571Y-100425000D01*
X154664285Y-100460714D01*
X154700000Y-100532143D01*
X154700000Y-100567857D01*
X154664285Y-100639286D01*
X154628571Y-100675000D01*
X154557142Y-100710714D01*
X154414285Y-100710714D01*
X154342857Y-100746429D01*
X154307142Y-100782143D01*
X154271428Y-100853571D01*
X154271428Y-100996429D01*
X154307142Y-101067857D01*
X154342857Y-101103571D01*
X154414285Y-101139286D01*
X154557142Y-101139286D01*
X154628571Y-101103571D01*
X154664285Y-101067857D01*
X154700000Y-100996429D01*
X154700000Y-100853571D01*
X154664285Y-100782143D01*
X154628571Y-100746429D01*
X154557142Y-100710714D01*
X154950000Y-100389286D02*
X155414286Y-100389286D01*
X155164286Y-100675000D01*
X155271428Y-100675000D01*
X155342857Y-100710714D01*
X155378571Y-100746429D01*
X155414286Y-100817857D01*
X155414286Y-100996429D01*
X155378571Y-101067857D01*
X155342857Y-101103571D01*
X155271428Y-101139286D01*
X155057143Y-101139286D01*
X154985714Y-101103571D01*
X154950000Y-101067857D01*
X153357286Y-105863286D02*
X152928714Y-105863286D01*
X153143000Y-105863286D02*
X153143000Y-105113286D01*
X153071571Y-105220429D01*
X153000143Y-105291857D01*
X152928714Y-105327571D01*
X161521428Y-100389286D02*
X161521428Y-100996429D01*
X161557143Y-101067857D01*
X161592857Y-101103571D01*
X161664286Y-101139286D01*
X161807143Y-101139286D01*
X161878571Y-101103571D01*
X161914286Y-101067857D01*
X161950000Y-100996429D01*
X161950000Y-100389286D01*
X162414285Y-100710714D02*
X162342857Y-100675000D01*
X162307142Y-100639286D01*
X162271428Y-100567857D01*
X162271428Y-100532143D01*
X162307142Y-100460714D01*
X162342857Y-100425000D01*
X162414285Y-100389286D01*
X162557142Y-100389286D01*
X162628571Y-100425000D01*
X162664285Y-100460714D01*
X162700000Y-100532143D01*
X162700000Y-100567857D01*
X162664285Y-100639286D01*
X162628571Y-100675000D01*
X162557142Y-100710714D01*
X162414285Y-100710714D01*
X162342857Y-100746429D01*
X162307142Y-100782143D01*
X162271428Y-100853571D01*
X162271428Y-100996429D01*
X162307142Y-101067857D01*
X162342857Y-101103571D01*
X162414285Y-101139286D01*
X162557142Y-101139286D01*
X162628571Y-101103571D01*
X162664285Y-101067857D01*
X162700000Y-100996429D01*
X162700000Y-100853571D01*
X162664285Y-100782143D01*
X162628571Y-100746429D01*
X162557142Y-100710714D01*
X163342857Y-100639286D02*
X163342857Y-101139286D01*
X163164286Y-100353571D02*
X162985714Y-100889286D01*
X163450000Y-100889286D01*
X161357286Y-105863286D02*
X160928714Y-105863286D01*
X161143000Y-105863286D02*
X161143000Y-105113286D01*
X161071571Y-105220429D01*
X161000143Y-105291857D01*
X160928714Y-105327571D01*
M02*
