%FSLAX46Y46*%
G04 Gerber Fmt 4.6, Leading zero omitted, Abs format (unit mm)*
G04 Created by KiCad (PCBNEW (2014-10-27 BZR 5228)-product) date 6/2/2015 10:04:42 PM*
%MOMM*%
G01*
G04 APERTURE LIST*
%ADD10C,0.100000*%
%ADD11C,1.750000*%
%ADD12R,1.500000X1.000000*%
%ADD13C,0.450000*%
G04 APERTURE END LIST*
D10*
D11*
X184152809Y-84679000D03*
X184152809Y-78279000D03*
X187590904Y-84679000D03*
X196062809Y-78279000D03*
X192362809Y-78279000D03*
X188257571Y-78279000D03*
D12*
X74450000Y-57600000D03*
X74450000Y-54400000D03*
X69550000Y-54400000D03*
X69550000Y-57600000D03*
X82450000Y-57600000D03*
X82450000Y-54400000D03*
X77550000Y-54400000D03*
X77550000Y-57600000D03*
X90450000Y-57600000D03*
X90450000Y-54400000D03*
X85550000Y-54400000D03*
X85550000Y-57600000D03*
X98450000Y-57600000D03*
X98450000Y-54400000D03*
X93550000Y-54400000D03*
X93550000Y-57600000D03*
X106450000Y-57600000D03*
X106450000Y-54400000D03*
X101550000Y-54400000D03*
X101550000Y-57600000D03*
X114450000Y-57600000D03*
X114450000Y-54400000D03*
X109550000Y-54400000D03*
X109550000Y-57600000D03*
X122450000Y-57600000D03*
X122450000Y-54400000D03*
X117550000Y-54400000D03*
X117550000Y-57600000D03*
X130450000Y-57600000D03*
X130450000Y-54400000D03*
X125550000Y-54400000D03*
X125550000Y-57600000D03*
X138450000Y-57600000D03*
X138450000Y-54400000D03*
X133550000Y-54400000D03*
X133550000Y-57600000D03*
X146450000Y-57600000D03*
X146450000Y-54400000D03*
X141550000Y-54400000D03*
X141550000Y-57600000D03*
X154450000Y-57600000D03*
X154450000Y-54400000D03*
X149550000Y-54400000D03*
X149550000Y-57600000D03*
X162450000Y-57600000D03*
X162450000Y-54400000D03*
X157550000Y-54400000D03*
X157550000Y-57600000D03*
X69550000Y-62400000D03*
X69550000Y-65600000D03*
X74450000Y-65600000D03*
X74450000Y-62400000D03*
X77550000Y-62400000D03*
X77550000Y-65600000D03*
X82450000Y-65600000D03*
X82450000Y-62400000D03*
X85550000Y-62400000D03*
X85550000Y-65600000D03*
X90450000Y-65600000D03*
X90450000Y-62400000D03*
X93550000Y-62400000D03*
X93550000Y-65600000D03*
X98450000Y-65600000D03*
X98450000Y-62400000D03*
X101550000Y-62400000D03*
X101550000Y-65600000D03*
X106450000Y-65600000D03*
X106450000Y-62400000D03*
X109550000Y-62400000D03*
X109550000Y-65600000D03*
X114450000Y-65600000D03*
X114450000Y-62400000D03*
X117550000Y-62400000D03*
X117550000Y-65600000D03*
X122450000Y-65600000D03*
X122450000Y-62400000D03*
X125550000Y-62400000D03*
X125550000Y-65600000D03*
X130450000Y-65600000D03*
X130450000Y-62400000D03*
X133550000Y-62400000D03*
X133550000Y-65600000D03*
X138450000Y-65600000D03*
X138450000Y-62400000D03*
X141550000Y-62400000D03*
X141550000Y-65600000D03*
X146450000Y-65600000D03*
X146450000Y-62400000D03*
X149550000Y-62400000D03*
X149550000Y-65600000D03*
X154450000Y-65600000D03*
X154450000Y-62400000D03*
X157550000Y-62400000D03*
X157550000Y-65600000D03*
X162450000Y-65600000D03*
X162450000Y-62400000D03*
X74450000Y-73600000D03*
X74450000Y-70400000D03*
X69550000Y-70400000D03*
X69550000Y-73600000D03*
X82450000Y-73600000D03*
X82450000Y-70400000D03*
X77550000Y-70400000D03*
X77550000Y-73600000D03*
X90450000Y-73600000D03*
X90450000Y-70400000D03*
X85550000Y-70400000D03*
X85550000Y-73600000D03*
X98450000Y-73600000D03*
X98450000Y-70400000D03*
X93550000Y-70400000D03*
X93550000Y-73600000D03*
X106450000Y-73600000D03*
X106450000Y-70400000D03*
X101550000Y-70400000D03*
X101550000Y-73600000D03*
X114450000Y-73600000D03*
X114450000Y-70400000D03*
X109550000Y-70400000D03*
X109550000Y-73600000D03*
X122450000Y-73600000D03*
X122450000Y-70400000D03*
X117550000Y-70400000D03*
X117550000Y-73600000D03*
X130450000Y-73600000D03*
X130450000Y-70400000D03*
X125550000Y-70400000D03*
X125550000Y-73600000D03*
X138450000Y-73600000D03*
X138450000Y-70400000D03*
X133550000Y-70400000D03*
X133550000Y-73600000D03*
X146450000Y-73600000D03*
X146450000Y-70400000D03*
X141550000Y-70400000D03*
X141550000Y-73600000D03*
X154450000Y-73600000D03*
X154450000Y-70400000D03*
X149550000Y-70400000D03*
X149550000Y-73600000D03*
X162450000Y-73600000D03*
X162450000Y-70400000D03*
X157550000Y-70400000D03*
X157550000Y-73600000D03*
X69550000Y-78400000D03*
X69550000Y-81600000D03*
X74450000Y-81600000D03*
X74450000Y-78400000D03*
X77550000Y-78400000D03*
X77550000Y-81600000D03*
X82450000Y-81600000D03*
X82450000Y-78400000D03*
X85550000Y-78400000D03*
X85550000Y-81600000D03*
X90450000Y-81600000D03*
X90450000Y-78400000D03*
X93550000Y-78400000D03*
X93550000Y-81600000D03*
X98450000Y-81600000D03*
X98450000Y-78400000D03*
X101550000Y-78400000D03*
X101550000Y-81600000D03*
X106450000Y-81600000D03*
X106450000Y-78400000D03*
X109550000Y-78400000D03*
X109550000Y-81600000D03*
X114450000Y-81600000D03*
X114450000Y-78400000D03*
X117550000Y-78400000D03*
X117550000Y-81600000D03*
X122450000Y-81600000D03*
X122450000Y-78400000D03*
X125550000Y-78400000D03*
X125550000Y-81600000D03*
X130450000Y-81600000D03*
X130450000Y-78400000D03*
X133550000Y-78400000D03*
X133550000Y-81600000D03*
X138450000Y-81600000D03*
X138450000Y-78400000D03*
X141550000Y-78400000D03*
X141550000Y-81600000D03*
X146450000Y-81600000D03*
X146450000Y-78400000D03*
X149550000Y-78400000D03*
X149550000Y-81600000D03*
X154450000Y-81600000D03*
X154450000Y-78400000D03*
X157550000Y-78400000D03*
X157550000Y-81600000D03*
X162450000Y-81600000D03*
X162450000Y-78400000D03*
X74450000Y-89600000D03*
X74450000Y-86400000D03*
X69550000Y-86400000D03*
X69550000Y-89600000D03*
X82450000Y-89600000D03*
X82450000Y-86400000D03*
X77550000Y-86400000D03*
X77550000Y-89600000D03*
X90450000Y-89600000D03*
X90450000Y-86400000D03*
X85550000Y-86400000D03*
X85550000Y-89600000D03*
X98450000Y-89600000D03*
X98450000Y-86400000D03*
X93550000Y-86400000D03*
X93550000Y-89600000D03*
X106450000Y-89600000D03*
X106450000Y-86400000D03*
X101550000Y-86400000D03*
X101550000Y-89600000D03*
X114450000Y-89600000D03*
X114450000Y-86400000D03*
X109550000Y-86400000D03*
X109550000Y-89600000D03*
X122450000Y-89600000D03*
X122450000Y-86400000D03*
X117550000Y-86400000D03*
X117550000Y-89600000D03*
X130450000Y-89600000D03*
X130450000Y-86400000D03*
X125550000Y-86400000D03*
X125550000Y-89600000D03*
X133550000Y-86400000D03*
X133550000Y-89600000D03*
X138450000Y-89600000D03*
X138450000Y-86400000D03*
X141550000Y-86400000D03*
X141550000Y-89600000D03*
X146450000Y-89600000D03*
X146450000Y-86400000D03*
X149550000Y-86400000D03*
X149550000Y-89600000D03*
X154450000Y-89600000D03*
X154450000Y-86400000D03*
X157550000Y-86400000D03*
X157550000Y-89600000D03*
X162450000Y-89600000D03*
X162450000Y-86400000D03*
X69550000Y-94400000D03*
X69550000Y-97600000D03*
X74450000Y-97600000D03*
X74450000Y-94400000D03*
X77550000Y-94400000D03*
X77550000Y-97600000D03*
X82450000Y-97600000D03*
X82450000Y-94400000D03*
X85550000Y-94400000D03*
X85550000Y-97600000D03*
X90450000Y-97600000D03*
X90450000Y-94400000D03*
X93550000Y-94400000D03*
X93550000Y-97600000D03*
X98450000Y-97600000D03*
X98450000Y-94400000D03*
X101550000Y-94400000D03*
X101550000Y-97600000D03*
X106450000Y-97600000D03*
X106450000Y-94400000D03*
X109550000Y-94400000D03*
X109550000Y-97600000D03*
X114450000Y-97600000D03*
X114450000Y-94400000D03*
X117550000Y-94400000D03*
X117550000Y-97600000D03*
X122450000Y-97600000D03*
X122450000Y-94400000D03*
X125550000Y-94400000D03*
X125550000Y-97600000D03*
X130450000Y-97600000D03*
X130450000Y-94400000D03*
X133550000Y-94400000D03*
X133550000Y-97600000D03*
X138450000Y-97600000D03*
X138450000Y-94400000D03*
X141550000Y-94400000D03*
X141550000Y-97600000D03*
X146450000Y-97600000D03*
X146450000Y-94400000D03*
X149550000Y-94400000D03*
X149550000Y-97600000D03*
X154450000Y-97600000D03*
X154450000Y-94400000D03*
X157550000Y-94400000D03*
X157550000Y-97600000D03*
X162450000Y-97600000D03*
X162450000Y-94400000D03*
X74450000Y-105600000D03*
X74450000Y-102400000D03*
X69550000Y-102400000D03*
X69550000Y-105600000D03*
X82450000Y-105600000D03*
X82450000Y-102400000D03*
X77550000Y-102400000D03*
X77550000Y-105600000D03*
X90450000Y-105600000D03*
X90450000Y-102400000D03*
X85550000Y-102400000D03*
X85550000Y-105600000D03*
X98450000Y-105600000D03*
X98450000Y-102400000D03*
X93550000Y-102400000D03*
X93550000Y-105600000D03*
X106450000Y-105600000D03*
X106450000Y-102400000D03*
X101550000Y-102400000D03*
X101550000Y-105600000D03*
X114450000Y-105600000D03*
X114450000Y-102400000D03*
X109550000Y-102400000D03*
X109550000Y-105600000D03*
X122450000Y-105600000D03*
X122450000Y-102400000D03*
X117550000Y-102400000D03*
X117550000Y-105600000D03*
X130450000Y-105600000D03*
X130450000Y-102400000D03*
X125550000Y-102400000D03*
X125550000Y-105600000D03*
X138450000Y-105600000D03*
X138450000Y-102400000D03*
X133550000Y-102400000D03*
X133550000Y-105600000D03*
X146450000Y-105600000D03*
X146450000Y-102400000D03*
X141550000Y-102400000D03*
X141550000Y-105600000D03*
X154450000Y-105600000D03*
X154450000Y-102400000D03*
X149550000Y-102400000D03*
X149550000Y-105600000D03*
X162450000Y-105600000D03*
X162450000Y-102400000D03*
X157550000Y-102400000D03*
X157550000Y-105600000D03*
D13*
X77550000Y-62400000D02*
X77550000Y-60950000D01*
X77550000Y-60950000D02*
X78000000Y-60500000D01*
X82450000Y-57600000D02*
X82450000Y-59450000D01*
X82450000Y-59450000D02*
X82500000Y-59500000D01*
X74450000Y-57600000D02*
X74450000Y-59450000D01*
X74450000Y-59450000D02*
X74500000Y-59500000D01*
X69550000Y-62400000D02*
X69550000Y-60950000D01*
X69550000Y-60950000D02*
X70000000Y-60500000D01*
M02*
