G04 #@! TF.FileFunction,Legend,Bot*
%FSLAX46Y46*%
G04 Gerber Fmt 4.6, Leading zero omitted, Abs format (unit mm)*
G04 Created by KiCad (PCBNEW (after 2015-may-25 BZR unknown)-product) date 6/10/2015 5:05:59 PM*
%MOMM*%
G01*
G04 APERTURE LIST*
%ADD10C,0.100000*%
%ADD11C,0.150000*%
G04 APERTURE END LIST*
D10*
D11*
X73285714Y-76071429D02*
X72523809Y-76071429D01*
X72904761Y-76452381D02*
X72904761Y-75690476D01*
X71571428Y-75452381D02*
X72047619Y-75452381D01*
X72095238Y-75928571D01*
X72047619Y-75880952D01*
X71952381Y-75833333D01*
X71714285Y-75833333D01*
X71619047Y-75880952D01*
X71571428Y-75928571D01*
X71523809Y-76023810D01*
X71523809Y-76261905D01*
X71571428Y-76357143D01*
X71619047Y-76404762D01*
X71714285Y-76452381D01*
X71952381Y-76452381D01*
X72047619Y-76404762D01*
X72095238Y-76357143D01*
X71238095Y-75452381D02*
X70904762Y-76452381D01*
X70571428Y-75452381D01*
X72761904Y-67500000D02*
X72857142Y-67452381D01*
X72999999Y-67452381D01*
X73142857Y-67500000D01*
X73238095Y-67595238D01*
X73285714Y-67690476D01*
X73333333Y-67880952D01*
X73333333Y-68023810D01*
X73285714Y-68214286D01*
X73238095Y-68309524D01*
X73142857Y-68404762D01*
X72999999Y-68452381D01*
X72904761Y-68452381D01*
X72761904Y-68404762D01*
X72714285Y-68357143D01*
X72714285Y-68023810D01*
X72904761Y-68023810D01*
X72285714Y-68452381D02*
X72285714Y-67452381D01*
X71714285Y-68452381D01*
X71714285Y-67452381D01*
X71238095Y-68452381D02*
X71238095Y-67452381D01*
X71000000Y-67452381D01*
X70857142Y-67500000D01*
X70761904Y-67595238D01*
X70714285Y-67690476D01*
X70666666Y-67880952D01*
X70666666Y-68023810D01*
X70714285Y-68214286D01*
X70761904Y-68309524D01*
X70857142Y-68404762D01*
X71000000Y-68452381D01*
X71238095Y-68452381D01*
X73023809Y-60452381D02*
X73023809Y-59452381D01*
X72785714Y-59452381D01*
X72642856Y-59500000D01*
X72547618Y-59595238D01*
X72499999Y-59690476D01*
X72452380Y-59880952D01*
X72452380Y-60023810D01*
X72499999Y-60214286D01*
X72547618Y-60309524D01*
X72642856Y-60404762D01*
X72785714Y-60452381D01*
X73023809Y-60452381D01*
X72023809Y-60452381D02*
X72023809Y-59452381D01*
X71547619Y-60452381D02*
X71547619Y-59452381D01*
X70976190Y-60452381D01*
X70976190Y-59452381D01*
X160785714Y-76071429D02*
X160023809Y-76071429D01*
X160404761Y-76452381D02*
X160404761Y-75690476D01*
X159071428Y-75452381D02*
X159547619Y-75452381D01*
X159595238Y-75928571D01*
X159547619Y-75880952D01*
X159452381Y-75833333D01*
X159214285Y-75833333D01*
X159119047Y-75880952D01*
X159071428Y-75928571D01*
X159023809Y-76023810D01*
X159023809Y-76261905D01*
X159071428Y-76357143D01*
X159119047Y-76404762D01*
X159214285Y-76452381D01*
X159452381Y-76452381D01*
X159547619Y-76404762D01*
X159595238Y-76357143D01*
X158738095Y-75452381D02*
X158404762Y-76452381D01*
X158071428Y-75452381D01*
X160761904Y-67500000D02*
X160857142Y-67452381D01*
X160999999Y-67452381D01*
X161142857Y-67500000D01*
X161238095Y-67595238D01*
X161285714Y-67690476D01*
X161333333Y-67880952D01*
X161333333Y-68023810D01*
X161285714Y-68214286D01*
X161238095Y-68309524D01*
X161142857Y-68404762D01*
X160999999Y-68452381D01*
X160904761Y-68452381D01*
X160761904Y-68404762D01*
X160714285Y-68357143D01*
X160714285Y-68023810D01*
X160904761Y-68023810D01*
X160285714Y-68452381D02*
X160285714Y-67452381D01*
X159714285Y-68452381D01*
X159714285Y-67452381D01*
X159238095Y-68452381D02*
X159238095Y-67452381D01*
X159000000Y-67452381D01*
X158857142Y-67500000D01*
X158761904Y-67595238D01*
X158714285Y-67690476D01*
X158666666Y-67880952D01*
X158666666Y-68023810D01*
X158714285Y-68214286D01*
X158761904Y-68309524D01*
X158857142Y-68404762D01*
X159000000Y-68452381D01*
X159238095Y-68452381D01*
X160690476Y-60452381D02*
X160690476Y-59452381D01*
X160452381Y-59452381D01*
X160309523Y-59500000D01*
X160214285Y-59595238D01*
X160166666Y-59690476D01*
X160119047Y-59880952D01*
X160119047Y-60023810D01*
X160166666Y-60214286D01*
X160214285Y-60309524D01*
X160309523Y-60404762D01*
X160452381Y-60452381D01*
X160690476Y-60452381D01*
X159500000Y-59452381D02*
X159309523Y-59452381D01*
X159214285Y-59500000D01*
X159119047Y-59595238D01*
X159071428Y-59785714D01*
X159071428Y-60119048D01*
X159119047Y-60309524D01*
X159214285Y-60404762D01*
X159309523Y-60452381D01*
X159500000Y-60452381D01*
X159595238Y-60404762D01*
X159690476Y-60309524D01*
X159738095Y-60119048D01*
X159738095Y-59785714D01*
X159690476Y-59595238D01*
X159595238Y-59500000D01*
X159500000Y-59452381D01*
X158642857Y-59452381D02*
X158642857Y-60261905D01*
X158595238Y-60357143D01*
X158547619Y-60404762D01*
X158452381Y-60452381D01*
X158261904Y-60452381D01*
X158166666Y-60404762D01*
X158119047Y-60357143D01*
X158071428Y-60261905D01*
X158071428Y-59452381D01*
X157738095Y-59452381D02*
X157166666Y-59452381D01*
X157452381Y-60452381D02*
X157452381Y-59452381D01*
M02*
