M48
;DRILL file {KiCad (after 2015-may-25 BZR unknown)-product} date 6/10/2015 5:06:02 PM
;FORMAT={-:-/ absolute / inch / decimal}
FMAT,2
INCH,TZ
T1C0.025
T2C0.040
%
G90
G05
M72
T1
X2.8346Y-2.5787
X2.8346Y-2.8346
X2.8346Y-3.2087
X2.8346Y-3.4646
X2.8346Y-3.8386
X2.8346Y-4.0945
X3.1496Y-2.3622
X3.1496Y-2.9921
X3.1496Y-3.622
X3.1496Y-4.2126
X3.4646Y-2.0866
X3.4646Y-2.6772
X3.4646Y-3.3071
X3.4646Y-3.937
X3.7795Y-2.3622
X3.7795Y-2.9921
X3.7795Y-3.622
X3.7795Y-4.2126
X4.0945Y-2.0866
X4.0945Y-2.6772
X4.0945Y-3.3071
X4.0945Y-3.937
X4.4094Y-2.3622
X4.4094Y-2.9921
X4.4094Y-3.622
X4.4094Y-4.2126
X4.7244Y-2.0866
X4.7244Y-2.6772
X4.7244Y-3.3071
X4.7244Y-3.937
X5.0394Y-2.3622
X5.0394Y-2.9921
X5.0394Y-3.622
X5.0394Y-4.2126
X5.3543Y-2.0866
X5.3543Y-2.6772
X5.3543Y-3.3071
X5.3543Y-3.937
X5.6693Y-2.3622
X5.6693Y-2.9921
X5.6693Y-3.622
X5.6693Y-4.2126
X5.9843Y-2.0866
X5.9843Y-2.6772
X5.9843Y-3.3071
X5.9843Y-3.937
X6.2992Y-2.2047
X6.2992Y-2.4606
X6.2992Y-2.8346
X6.2992Y-3.0906
X6.2992Y-3.4646
X6.2992Y-3.7205
X6.3386Y-4.0354
T2
X2.7362Y-2.3622
X2.7362Y-2.6772
X2.7362Y-2.9921
X6.3976Y-2.3622
X6.3976Y-2.6772
X6.3976Y-2.9921
T0
M30
